<?xml version="1.0" standalone="no"?>
<!DOCTYPE svg PUBLIC "-//W3C//DTD SVG 20010904//EN"
 "http://www.w3.org/TR/2001/REC-SVG-20010904/DTD/svg10.dtd">
<svg version="1.0" xmlns="http://www.w3.org/2000/svg"
 width="1080.000000pt" height="1080.000000pt" viewBox="0 0 1080.000000 1080.000000"
 preserveAspectRatio="xMidYMid meet">
<metadata>
Created by potrace 1.14, written by Peter Selinger 2001-2017
</metadata>
<g transform="translate(0.000000,1080.000000) scale(0.100000,-0.100000)"
fill="#000000" stroke="none">
<path d="M5163 9199 c-6 -6 -44 -11 -84 -11 -41 -1 -82 -5 -91 -9 -9 -5 -18
-5 -20 1 -2 5 -13 7 -25 4 -13 -4 -20 -11 -17 -18 3 -6 -2 -2 -10 8 -9 11 -16
15 -16 10 0 -12 -40 -12 -58 -1 -7 5 -14 2 -18 -8 -5 -12 -9 -13 -20 -4 -9 7
-14 8 -14 1 0 -5 -9 -8 -21 -5 -12 4 -25 0 -30 -8 -7 -11 -9 -11 -9 -1 0 9 -5
10 -18 3 -13 -7 -23 -6 -30 1 -9 9 -12 9 -12 1 0 -6 -15 -11 -32 -11 -54 0
-60 -1 -52 -14 6 -9 3 -9 -9 0 -9 8 -22 10 -29 6 -21 -13 -59 -14 -51 -1 4 7
-1 6 -11 -2 -15 -13 -19 -13 -27 0 -7 11 -9 11 -9 -3 0 -12 -5 -15 -17 -11
-12 5 -14 3 -8 -7 6 -10 4 -11 -6 -4 -21 13 -39 14 -39 1 0 -8 -3 -8 -12 1 -9
9 -15 7 -25 -6 -8 -9 -11 -11 -7 -3 6 11 3 13 -12 6 -10 -4 -32 -9 -49 -11
-16 -2 -39 -5 -50 -7 -11 -1 -23 -6 -27 -12 -5 -6 -8 -5 -8 3 0 6 -5 12 -11
12 -5 0 -7 -5 -3 -11 4 -8 0 -9 -15 -4 -12 3 -21 2 -21 -4 0 -5 -9 -8 -20 -6
-11 2 -20 -2 -20 -8 0 -8 -3 -8 -8 -2 -10 15 -35 18 -26 4 5 -9 1 -10 -14 -7
-12 4 -25 2 -28 -3 -3 -5 -20 -9 -38 -9 -17 0 -38 -6 -45 -12 -11 -11 -12 -10
-6 2 7 12 6 13 -7 3 -8 -7 -18 -10 -21 -6 -4 3 -7 2 -7 -4 0 -5 -12 -9 -27 -8
-16 1 -33 -2 -39 -7 -7 -5 -16 -8 -20 -7 -19 3 -35 -1 -30 -9 2 -4 -11 -7 -30
-7 -19 1 -34 -2 -34 -7 0 -5 -4 -6 -10 -3 -5 3 -10 0 -10 -7 0 -10 -2 -10 -9
1 -6 10 -10 10 -16 1 -4 -6 -13 -9 -21 -6 -8 3 -14 1 -14 -4 0 -5 -7 -7 -15
-4 -8 4 -15 1 -15 -4 0 -6 -9 -9 -20 -7 -11 2 -20 0 -20 -5 0 -4 -11 -7 -25
-6 -14 2 -22 -1 -18 -7 3 -5 0 -7 -8 -5 -8 3 -20 -2 -27 -11 -8 -9 -11 -10 -7
-3 7 14 -11 17 -20 2 -4 -6 -11 -8 -16 -5 -5 4 -9 1 -9 -5 0 -6 -4 -9 -8 -6
-9 5 -67 -13 -91 -28 -10 -7 -12 -5 -7 5 4 8 0 5 -8 -5 -12 -15 -16 -16 -16
-5 0 12 -2 12 -10 -1 -5 -8 -10 -11 -10 -6 0 5 -7 3 -15 -4 -8 -6 -19 -9 -25
-5 -5 3 -10 1 -10 -6 0 -7 -3 -9 -7 -6 -3 4 -13 1 -21 -6 -13 -10 -15 -9 -8 3
5 9 2 8 -7 -2 -11 -14 -16 -15 -26 -5 -10 9 -12 9 -9 -3 2 -10 -4 -15 -19 -14
-13 1 -20 -2 -18 -6 3 -4 -2 -11 -11 -14 -8 -3 -12 -2 -9 4 3 6 -1 7 -9 4 -9
-3 -16 -11 -16 -18 0 -7 -3 -6 -9 2 -7 11 -9 11 -14 -2 -4 -10 -13 -13 -23 -9
-12 4 -15 3 -10 -5 5 -8 2 -10 -8 -6 -9 3 -16 1 -16 -5 0 -6 -11 -11 -24 -11
-14 0 -32 -7 -40 -16 -12 -12 -16 -12 -16 -2 0 9 -3 10 -8 2 -7 -11 -45 -27
-67 -29 -5 0 -9 -7 -7 -14 1 -7 -2 -10 -8 -6 -6 4 -18 1 -27 -7 -9 -7 -19 -12
-22 -12 -3 1 -17 -3 -31 -8 -14 -6 -32 -11 -40 -13 -8 -1 -14 -8 -12 -15 1 -6
-2 -9 -7 -6 -5 4 -13 1 -16 -5 -4 -5 -13 -8 -21 -5 -8 3 -14 1 -14 -4 0 -5 -7
-6 -17 -3 -11 4 -14 3 -9 -5 4 -7 2 -13 -3 -13 -6 -1 -14 -3 -18 -4 -5 -2 -18
-6 -30 -10 -13 -4 -20 -11 -17 -16 3 -5 -2 -6 -10 -3 -9 3 -16 1 -16 -6 0 -6
-5 -8 -11 -4 -6 3 -15 1 -19 -7 -5 -7 -16 -14 -25 -15 -9 -1 -26 -11 -37 -21
-11 -10 -23 -17 -27 -17 -3 1 -5 -3 -3 -10 2 -8 0 -7 -9 1 -10 10 -15 9 -26
-5 -10 -11 -12 -12 -7 -2 4 8 -3 5 -15 -8 -12 -12 -26 -20 -32 -17 -5 4 -9 1
-9 -5 0 -6 -4 -8 -10 -5 -5 3 -10 2 -10 -3 0 -8 -56 -39 -73 -40 -5 0 -15 -9
-23 -19 -7 -10 -14 -14 -14 -10 0 5 -7 1 -16 -7 -8 -9 -21 -13 -27 -9 -7 4 -8
0 -4 -11 4 -10 3 -15 -4 -11 -5 4 -26 -6 -46 -21 -20 -15 -33 -21 -29 -13 4 8
1 6 -7 -3 -8 -10 -22 -18 -32 -18 -10 0 -15 -3 -12 -7 6 -6 -54 -48 -61 -44
-2 1 -9 -5 -16 -15 -7 -9 -18 -14 -24 -10 -7 4 -12 1 -12 -8 0 -9 -5 -16 -11
-16 -6 0 -17 -7 -26 -15 -8 -8 -20 -12 -26 -8 -7 3 -9 3 -5 -2 8 -8 -33 -45
-50 -45 -5 0 -12 -7 -16 -15 -3 -8 -9 -14 -13 -13 -5 2 -19 -7 -33 -19 -13
-13 -30 -23 -37 -23 -8 0 -11 -4 -8 -10 3 -5 -1 -10 -9 -10 -8 0 -22 -9 -30
-21 -9 -13 -19 -18 -27 -14 -7 5 -10 4 -6 -2 3 -5 -3 -17 -14 -26 -10 -9 -19
-13 -19 -9 0 4 -5 -1 -11 -11 -6 -9 -14 -15 -20 -12 -5 4 -9 0 -9 -8 0 -8 -9
-17 -21 -20 -12 -3 -18 -10 -14 -16 5 -10 -1 -13 -21 -10 -4 0 -15 -12 -25
-28 -10 -15 -19 -23 -19 -18 0 6 -5 2 -11 -7 -5 -10 -17 -18 -26 -18 -9 0 -13
-3 -10 -6 7 -8 -31 -44 -45 -44 -5 0 -7 -3 -5 -7 5 -8 -17 -34 -28 -33 -10 0
-43 -38 -37 -44 3 -3 0 -6 -6 -6 -6 0 -37 -27 -70 -60 -33 -33 -59 -60 -57
-60 2 0 -12 -18 -33 -39 -80 -85 -142 -160 -142 -172 0 -6 -4 -7 -10 -4 -5 3
-10 0 -10 -8 0 -8 -7 -18 -16 -21 -9 -4 -14 -9 -11 -12 5 -5 -16 -34 -51 -70
-7 -8 -11 -14 -7 -14 3 0 0 -6 -7 -14 -7 -8 -16 -12 -20 -9 -4 2 -5 -3 -2 -11
3 -9 2 -16 -3 -16 -10 0 -49 -61 -45 -72 1 -5 -5 -8 -14 -8 -8 0 -12 -4 -9
-10 3 -5 1 -10 -6 -10 -7 0 -10 -3 -6 -6 6 -6 -1 -17 -35 -55 -10 -10 -18 -24
-18 -31 0 -6 -11 -26 -25 -43 -13 -18 -21 -35 -18 -39 4 -3 1 -6 -6 -6 -7 0
-10 -4 -7 -9 3 -5 -1 -14 -9 -21 -8 -7 -15 -19 -15 -26 0 -8 -4 -14 -9 -14 -8
0 -24 -37 -22 -52 1 -5 -3 -8 -8 -8 -5 0 -12 -13 -16 -30 -4 -16 -10 -30 -13
-30 -11 0 -32 -52 -26 -61 3 -5 0 -9 -6 -9 -6 0 -8 -4 -5 -10 3 -5 1 -10 -6
-10 -7 0 -10 -3 -6 -6 3 -4 -1 -13 -9 -21 -8 -8 -12 -18 -9 -23 3 -5 1 -11 -5
-15 -6 -4 -8 -11 -5 -16 4 -5 1 -9 -4 -9 -6 0 -10 -3 -10 -7 3 -19 -2 -34 -9
-29 -4 2 -9 -7 -10 -21 -1 -14 -6 -31 -11 -37 -6 -7 -12 -25 -15 -41 -3 -15
-11 -32 -18 -37 -10 -6 -10 -8 0 -8 6 0 12 -5 12 -11 0 -5 -4 -7 -10 -4 -5 3
-11 -2 -12 -12 0 -10 -2 -25 -2 -33 -1 -8 -6 -14 -12 -13 -6 1 -9 -12 -8 -28
1 -16 -2 -29 -8 -29 -5 0 -6 -5 -3 -10 4 -6 2 -17 -4 -24 -6 -7 -12 -25 -13
-40 -1 -14 -7 -26 -13 -26 -5 0 -3 -5 5 -10 9 -6 11 -10 3 -10 -7 0 -10 -7 -7
-15 4 -8 2 -15 -4 -15 -5 0 -8 -11 -7 -25 2 -14 -1 -25 -5 -25 -5 0 -7 -9 -5
-20 2 -11 1 -20 -3 -20 -4 0 -8 -10 -9 -22 -4 -58 -9 -78 -18 -78 -5 0 -3 -5
5 -10 11 -7 11 -10 2 -10 -7 0 -10 -5 -6 -11 3 -6 0 -15 -7 -20 -12 -7 -12 -9
0 -9 11 0 11 -3 1 -15 -10 -12 -10 -15 1 -15 9 0 10 -3 4 -8 -16 -11 -17 -34
-3 -43 10 -7 10 -9 -2 -9 -12 0 -15 -13 -15 -58 1 -31 -3 -65 -8 -76 -7 -14
-6 -16 4 -11 8 5 10 4 5 -4 -13 -20 -18 -63 -6 -56 6 3 7 0 4 -9 -3 -9 -11
-13 -17 -9 -6 4 -7 1 -1 -8 14 -23 16 -51 2 -43 -7 5 -8 3 -3 -6 5 -8 8 -42 8
-77 0 -35 3 -66 8 -69 5 -3 6 -11 2 -17 -12 -19 -12 -37 -1 -37 7 0 6 -5 -1
-14 -8 -9 -8 -16 -2 -20 5 -4 10 -19 10 -34 1 -55 8 -119 15 -130 3 -6 1 -14
-4 -17 -8 -5 -6 -13 6 -26 11 -12 13 -19 5 -19 -7 0 -9 -5 -4 -12 4 -7 6 -21
5 -30 -2 -10 1 -18 6 -18 6 0 8 -10 4 -22 -4 -16 -2 -19 9 -13 11 6 11 5 2 -5
-9 -10 -8 -18 4 -36 11 -17 12 -24 3 -24 -9 0 -10 -3 -1 -13 6 -8 8 -17 4 -20
-3 -4 -1 -7 5 -7 7 0 12 -5 12 -11 0 -5 -4 -7 -10 -4 -6 3 -7 -1 -4 -9 3 -9 9
-14 14 -11 4 2 6 -7 4 -20 -1 -14 2 -27 6 -30 5 -3 7 -14 5 -25 -3 -13 0 -18
7 -14 7 5 9 2 5 -9 -3 -9 -2 -19 2 -22 5 -3 7 -14 4 -25 -3 -11 0 -20 6 -20 6
0 11 -9 11 -19 0 -11 5 -23 11 -27 8 -5 8 -8 0 -13 -7 -5 -5 -14 8 -28 11 -11
17 -23 14 -27 -3 -3 -1 -12 5 -19 7 -8 10 -16 7 -19 -3 -2 4 -22 14 -43 10
-22 16 -45 14 -52 -3 -8 0 -13 8 -11 9 2 14 -5 13 -19 -1 -13 3 -23 8 -23 5 0
6 -4 3 -10 -3 -5 -1 -10 4 -10 6 0 11 -9 11 -20 0 -11 5 -20 10 -20 6 0 10 -9
10 -20 0 -11 4 -20 8 -20 4 0 9 -10 9 -22 1 -13 7 -24 13 -26 5 -2 10 -10 10
-18 0 -8 4 -14 8 -14 4 0 8 -9 9 -20 1 -11 9 -27 17 -36 9 -8 19 -26 22 -40 3
-13 10 -24 16 -24 5 0 7 -4 4 -9 -4 -5 -2 -11 3 -13 5 -1 11 -9 13 -17 2 -8
11 -23 21 -33 10 -10 15 -23 12 -28 -4 -6 -1 -10 4 -10 6 0 11 -7 11 -16 0 -8
4 -12 10 -9 5 3 10 -3 10 -14 0 -12 5 -21 10 -21 6 0 10 -7 10 -15 0 -8 5 -15
10 -15 6 0 10 -7 10 -16 0 -8 4 -12 10 -9 5 3 10 -3 10 -14 0 -12 5 -21 11
-21 5 0 7 -4 4 -10 -3 -5 -2 -10 3 -10 6 0 23 -20 39 -45 15 -25 31 -45 36
-45 4 0 7 -5 7 -10 0 -12 15 -32 43 -58 9 -9 17 -20 17 -24 0 -5 14 -22 30
-40 17 -17 30 -35 30 -40 0 -5 4 -6 10 -3 5 3 10 -3 10 -15 0 -12 5 -18 10
-15 6 3 10 1 10 -5 0 -7 14 -25 30 -40 17 -15 30 -30 30 -34 0 -5 293 -298
344 -343 13 -12 27 -19 30 -16 3 4 6 -1 6 -10 0 -8 8 -18 18 -21 9 -3 38 -26
64 -51 27 -25 48 -42 48 -38 1 5 10 -3 20 -16 11 -13 20 -20 20 -17 0 4 12 -5
26 -19 14 -14 30 -22 36 -19 6 4 8 3 5 -3 -4 -5 5 -16 18 -23 14 -7 25 -17 25
-22 0 -4 7 -8 15 -8 9 0 18 -7 21 -15 4 -8 10 -12 15 -9 5 3 9 0 9 -5 0 -6 7
-11 15 -11 8 0 15 -4 15 -8 0 -5 11 -15 25 -22 13 -7 22 -18 18 -23 -3 -6 -1
-7 5 -3 7 4 27 -4 45 -18 19 -15 39 -26 45 -26 7 0 12 -4 12 -9 0 -5 12 -16
26 -26 18 -12 24 -13 19 -4 -3 8 0 6 8 -3 8 -10 19 -18 26 -18 6 0 11 -4 11
-10 0 -5 7 -10 16 -10 9 0 12 -5 8 -12 -4 -7 -3 -8 5 -4 6 4 18 0 27 -8 9 -9
20 -14 25 -11 5 4 9 -1 9 -9 0 -9 3 -15 7 -14 12 4 73 -26 73 -35 0 -5 5 -5
10 -2 6 3 13 -1 16 -10 4 -9 13 -14 20 -11 8 3 14 1 14 -5 0 -5 14 -15 30 -20
17 -6 30 -15 30 -20 0 -4 7 -6 15 -3 8 4 15 1 15 -6 0 -7 7 -10 15 -6 9 3 15
0 15 -9 0 -8 6 -15 13 -15 18 0 80 -31 89 -44 4 -6 8 -7 8 -3 0 5 16 -1 36
-12 19 -12 40 -18 46 -15 7 4 8 2 4 -4 -4 -7 -4 -12 1 -13 29 -3 47 -9 54 -21
5 -7 9 -9 9 -4 0 5 7 3 15 -4 8 -6 20 -8 26 -4 8 4 9 3 5 -4 -5 -8 0 -12 13
-12 12 0 21 -5 21 -11 0 -5 5 -7 10 -4 6 3 10 1 10 -5 0 -6 5 -8 11 -5 5 4 18
0 27 -7 29 -25 46 -33 37 -17 -5 8 2 5 15 -6 14 -12 20 -14 15 -5 -6 11 -3 10
12 -3 11 -9 29 -17 40 -17 11 0 26 -7 33 -15 15 -18 34 -20 24 -2 -6 9 -5 9 8
0 8 -7 19 -9 23 -5 5 4 5 1 1 -5 -6 -12 5 -18 27 -14 4 0 7 -4 7 -11 0 -6 3
-8 7 -5 3 4 12 2 20 -4 7 -6 13 -8 13 -4 0 4 7 2 15 -5 12 -10 15 -10 15 1 1
8 7 3 15 -11 8 -14 14 -19 15 -11 0 11 3 11 15 1 8 -6 19 -9 25 -5 5 3 13 -1
16 -9 3 -9 11 -13 16 -10 6 4 14 0 19 -7 7 -12 9 -12 9 0 0 11 5 9 22 -5 12
-10 18 -13 14 -6 -4 7 7 4 27 -7 25 -14 38 -16 46 -8 7 7 12 6 17 -6 3 -9 10
-14 15 -11 5 3 9 -1 9 -8 0 -9 3 -9 10 2 5 8 10 10 10 4 0 -10 38 -24 82 -29
10 -1 25 -8 35 -16 10 -8 14 -9 10 -2 -5 8 1 8 19 -2 15 -8 31 -12 36 -9 4 3
8 0 8 -7 0 -10 3 -10 12 -1 9 9 15 7 25 -6 8 -9 12 -11 8 -5 -4 9 -1 11 9 7 9
-3 13 -10 10 -15 -3 -5 0 -9 5 -9 6 0 11 6 11 13 0 7 5 5 10 -5 6 -9 18 -14
29 -11 10 3 29 -1 41 -7 17 -9 21 -9 15 0 -5 7 3 7 21 -3 16 -8 35 -12 42 -10
6 3 12 -1 12 -8 0 -7 3 -9 6 -6 4 3 15 2 25 -4 14 -7 19 -6 19 3 0 9 3 9 8 2
11 -16 45 -27 36 -11 -5 9 -4 9 7 -1 7 -6 26 -12 41 -12 15 0 28 -5 28 -11 0
-8 5 -8 15 1 9 7 15 8 15 2 0 -6 12 -9 26 -7 19 2 24 -1 19 -13 -4 -11 -2 -12
8 -4 9 8 24 9 45 2 38 -10 36 -10 68 -10 17 0 23 -4 18 -12 -5 -9 -2 -9 9 1
14 11 17 11 17 0 0 -11 2 -11 10 1 7 11 10 11 10 2 0 -7 4 -11 9 -7 5 3 12 2
15 -3 2 -4 17 -7 33 -6 15 1 36 -3 45 -7 10 -6 19 -5 24 2 4 8 9 8 13 1 4 -6
26 -12 49 -13 24 -2 46 -7 49 -11 2 -5 12 -3 21 4 12 10 14 10 8 1 -9 -16 6
-17 22 -1 8 8 12 9 12 1 0 -6 11 -10 25 -8 14 1 25 -3 25 -9 0 -6 4 -5 9 3 7
11 11 10 20 -5 6 -11 11 -14 11 -7 0 13 60 13 60 0 0 -4 9 -3 19 3 11 5 22 6
25 2 3 -5 18 -8 33 -8 15 1 38 -2 51 -6 16 -5 21 -4 16 3 -5 8 -1 8 13 0 11
-6 23 -7 27 -3 4 3 11 0 16 -8 7 -10 10 -11 10 -2 0 6 5 12 11 12 5 0 7 -6 3
-12 -5 -8 -1 -8 10 1 15 13 19 13 27 0 7 -12 9 -12 9 1 0 9 3 11 8 5 4 -5 14
-10 22 -10 8 0 18 5 22 10 5 6 8 5 8 -4 0 -10 3 -11 14 -2 10 8 16 9 21 1 3
-5 11 -10 16 -10 6 0 7 5 3 12 -5 7 -3 8 7 2 24 -14 51 -16 43 -2 -6 10 -5 10
7 1 8 -6 27 -10 42 -9 17 2 32 -3 38 -13 8 -12 9 -13 6 -1 -3 10 3 15 19 15
13 0 24 -3 24 -7 0 -4 12 -3 28 1 31 8 133 7 156 -2 8 -3 18 -2 21 3 3 5 18 5
35 0 18 -5 28 -5 25 1 -3 5 7 7 24 5 16 -2 35 0 42 5 8 4 19 3 27 -3 10 -9 16
-8 22 1 5 9 9 10 14 2 4 -6 12 -8 18 -5 20 13 68 13 61 0 -4 -7 -1 -6 8 1 12
10 18 10 29 0 10 -10 11 -9 5 2 -6 11 -4 13 8 8 10 -4 17 -2 17 5 0 7 5 6 15
-2 8 -7 15 -8 15 -3 0 10 40 10 57 0 7 -4 14 -3 18 3 4 6 11 8 16 5 5 -4 9 0
9 7 0 10 3 9 9 -1 7 -11 13 -12 23 -3 17 13 70 12 80 -3 4 -6 8 -2 8 8 0 15 3
16 20 7 12 -7 20 -7 20 -1 0 5 9 8 20 6 11 -2 20 2 20 8 0 7 4 6 10 -3 6 -10
13 -11 18 -5 4 6 24 10 45 10 20 0 37 4 37 9 0 4 8 2 17 -5 12 -10 15 -11 9
-1 -6 9 -1 11 18 8 16 -3 26 0 26 7 0 8 3 8 9 -1 6 -11 10 -10 15 4 5 13 10
14 18 6 7 -7 19 -7 34 -2 17 7 24 6 24 -2 0 -7 7 -3 15 8 10 13 14 14 15 5 0
-11 3 -11 16 0 13 10 17 10 24 0 5 -8 9 -9 11 -3 2 6 15 12 29 14 14 2 30 7
37 11 6 4 15 3 18 -3 4 -7 11 -7 18 -2 7 5 20 8 30 7 10 -2 14 1 10 8 -4 6 0
8 10 4 9 -3 19 -2 23 4 4 6 11 6 20 -2 11 -9 15 -8 20 4 3 9 12 13 19 11 7 -3
22 -1 33 5 15 8 22 8 26 -2 3 -9 8 -8 18 4 7 9 19 14 27 11 10 -3 11 0 5 9 -6
12 -5 12 8 1 12 -9 18 -10 23 -2 4 7 16 10 26 7 11 -3 19 -1 19 4 0 5 5 9 11
9 5 0 7 -5 3 -12 -4 -6 3 -4 15 5 13 8 30 13 39 10 10 -4 13 -2 8 5 -4 8 -2
10 8 6 8 -3 23 -1 34 5 13 7 22 7 31 -2 10 -9 11 -8 6 5 -5 13 -2 15 16 11 14
-4 20 -2 16 4 -4 6 4 9 18 7 14 -1 25 2 25 7 0 6 4 7 10 4 5 -3 19 -1 30 5 15
8 20 8 20 -2 0 -6 7 -3 15 8 8 10 15 15 15 10 0 -5 7 -3 15 4 12 10 15 10 15
-1 0 -11 2 -12 9 -1 4 7 17 15 27 17 10 2 20 4 22 5 1 2 6 3 11 4 5 0 13 4 17
8 4 4 14 2 22 -5 11 -8 14 -8 9 0 -8 13 27 28 42 19 5 -3 11 0 14 7 2 7 17 13
33 15 15 1 30 5 33 10 3 4 15 9 26 10 11 2 23 9 27 15 6 9 8 8 8 -2 0 -10 3
-11 13 -2 8 6 17 8 20 4 4 -3 7 -1 7 6 0 8 7 11 15 7 9 -3 18 1 21 9 4 8 10
15 16 15 5 0 6 -6 3 -12 -4 -7 1 -4 9 6 9 11 16 16 16 12 0 -5 12 -1 26 9 15
9 24 13 21 8 -4 -5 0 -10 8 -10 8 0 12 4 9 9 -3 4 2 8 10 8 9 0 16 4 16 9 0 5
8 8 18 7 9 -2 23 4 30 13 10 12 12 12 6 1 -7 -12 -5 -13 8 -3 8 7 18 10 21 6
4 -3 7 -1 7 6 0 7 5 9 10 6 6 -3 10 -1 10 5 0 7 6 10 13 7 6 -2 18 3 25 12 8
9 11 10 7 4 -4 -9 -1 -11 9 -7 9 3 13 10 10 15 -3 6 6 8 20 5 18 -3 24 -1 20
6 -5 8 -1 9 10 5 10 -4 15 -3 11 3 -4 6 8 13 25 16 17 4 33 11 36 15 3 5 10 7
15 4 5 -4 9 -1 9 5 0 6 5 8 10 5 6 -3 10 -1 10 5 0 6 5 8 10 5 6 -3 10 -1 10
5 0 6 5 8 10 5 6 -3 10 -1 10 5 0 6 5 8 10 5 6 -3 10 -1 10 5 0 6 4 9 9 5 5
-3 16 1 24 9 8 8 17 12 21 9 3 -4 6 -2 6 3 0 5 9 10 21 11 11 1 28 10 37 20
10 10 24 18 32 18 8 0 21 5 28 12 7 7 20 13 28 13 8 0 14 4 14 9 0 8 37 24 53
22 4 -1 7 3 7 9 0 5 5 10 11 10 7 0 18 8 26 17 10 12 12 13 8 3 -5 -12 -4 -12
7 1 7 9 19 14 26 12 6 -3 12 0 12 6 0 6 7 11 15 11 7 0 18 8 24 18 5 9 13 16
18 16 12 -2 53 15 53 21 0 4 -5 3 -12 -1 -7 -4 -8 -3 -4 5 4 6 11 9 16 6 5 -3
16 2 24 11 9 8 16 12 16 7 0 -4 7 1 16 12 8 11 16 18 17 17 1 -2 14 2 29 9 15
6 25 16 21 22 -3 5 0 8 8 5 8 -3 19 0 26 6 7 6 18 16 25 21 7 6 22 17 33 25
15 12 17 12 10 1 -6 -10 -4 -12 4 -7 7 5 10 14 7 22 -3 8 0 11 8 8 7 -3 19 2
26 11 7 8 17 15 23 15 5 0 17 8 26 18 9 10 31 27 49 37 17 11 32 23 32 28 0 4
16 15 35 23 20 8 34 18 31 22 -3 5 11 16 30 27 19 10 34 22 34 26 0 4 9 11 20
14 11 4 18 11 15 16 -4 5 -2 9 3 9 11 0 64 43 95 78 11 12 26 22 32 22 6 0 17
9 25 19 7 11 17 18 22 15 5 -3 7 -1 6 4 -4 11 68 82 83 82 5 0 8 3 6 8 -2 4 4
15 15 25 10 9 18 15 18 12 0 -2 11 6 23 18 13 12 23 25 23 28 -1 4 20 27 47
52 26 25 47 50 47 56 0 6 7 11 15 11 8 0 15 4 15 10 0 5 16 27 35 47 19 20 35
41 35 45 0 4 7 8 16 8 8 0 13 4 10 9 -3 5 12 28 34 52 22 24 40 47 40 51 0 4
13 21 30 39 16 18 27 36 25 40 -3 4 2 10 11 13 8 3 12 11 9 16 -4 6 -2 9 3 8
6 -2 10 1 10 5 1 5 9 16 19 25 10 9 19 23 21 30 1 7 11 23 22 35 11 11 20 26
20 33 0 6 7 14 15 18 9 3 12 12 8 22 -4 11 -3 15 5 10 6 -3 14 3 18 16 3 12
13 28 20 36 8 7 12 18 9 23 -4 5 -1 9 4 9 6 0 11 7 11 16 0 8 5 12 10 9 6 -3
10 3 10 14 0 11 6 26 14 33 7 8 17 25 21 38 4 14 10 27 14 30 14 12 31 52 26
60 -4 6 -2 10 4 10 5 0 13 9 16 20 4 12 11 17 18 13 7 -4 5 2 -3 12 -9 11 -10
16 -2 11 8 -5 12 0 12 13 0 12 5 21 10 21 6 0 9 3 8 8 -1 7 6 31 25 72 6 14
10 28 9 33 -1 4 3 7 9 7 5 0 8 4 4 9 -3 5 2 17 11 25 11 12 12 16 2 16 -8 0
-9 3 -2 8 15 10 28 44 25 66 -2 10 1 16 6 13 5 -3 10 6 11 21 1 14 8 29 15 34
6 4 8 8 3 8 -5 0 -2 8 5 17 12 15 12 16 -1 8 -12 -7 -13 -6 -3 7 7 8 10 18 6
21 -3 4 -1 7 5 7 6 0 9 9 7 20 -2 11 0 20 5 20 5 0 7 7 4 15 -4 8 -1 15 5 15
6 0 10 3 10 8 -5 28 3 62 12 56 7 -4 7 1 -1 16 -9 17 -9 21 0 15 8 -5 11 1 8
21 -2 21 1 28 11 26 12 -3 12 0 1 12 -9 12 -9 16 -1 16 7 0 11 6 10 13 -4 31
2 68 10 62 6 -3 6 6 1 25 -6 21 -5 28 2 24 6 -4 8 1 3 15 -3 11 -2 21 3 21 4
0 8 16 7 35 -1 19 2 35 6 35 5 0 4 11 -1 24 -5 13 -6 27 -2 30 15 15 21 134 8
155 -6 10 -5 12 3 7 8 -6 11 2 8 28 -3 22 0 36 7 36 6 0 3 5 -7 11 -14 8 -16
14 -6 25 6 8 8 14 4 14 -4 0 -2 6 4 14 8 10 9 16 1 21 -5 3 -10 11 -10 16 0 6
4 8 8 5 5 -3 9 1 9 9 0 8 -4 15 -8 15 -4 0 -6 11 -5 25 0 14 6 25 11 25 6 0 3
5 -5 10 -8 5 -10 10 -5 10 6 0 3 5 -5 10 -9 6 -10 10 -3 10 7 0 10 10 6 28 -2
15 -6 54 -8 87 -2 33 -4 60 -5 60 -3 0 -10 41 -12 72 0 18 -4 30 -7 28 -4 -2
-7 5 -7 16 0 10 4 19 9 19 5 0 4 7 -3 15 -7 8 -10 26 -8 40 4 18 1 25 -10 25
-12 0 -12 3 -2 15 8 9 8 15 2 15 -6 0 -11 8 -11 18 -2 42 -6 62 -11 62 -3 0
-7 9 -8 20 -1 11 -2 28 -3 38 -1 9 -9 25 -17 35 -11 12 -12 17 -2 17 9 0 10 3
1 13 -6 8 -8 17 -4 20 3 4 0 7 -8 7 -11 0 -11 2 1 10 13 8 13 10 -2 10 -11 0
-15 6 -11 20 3 11 0 20 -6 20 -6 0 -11 11 -11 25 0 15 -7 39 -15 55 -9 17 -12
30 -8 30 5 0 2 4 -6 9 -8 5 -15 21 -17 36 -2 15 -11 36 -21 48 -10 11 -12 17
-5 13 17 -10 15 -1 -4 18 -8 9 -11 16 -4 16 6 0 2 10 -10 22 -14 15 -16 24 -9
29 8 4 4 11 -11 19 -16 9 -19 14 -11 20 9 5 9 9 -3 13 -9 4 -16 16 -16 27 0
11 -5 20 -11 20 -5 0 -8 4 -4 9 3 5 -2 17 -11 25 -8 9 -12 16 -8 16 4 0 -1 7
-12 16 -10 8 -13 12 -6 9 11 -6 11 -3 0 16 -7 13 -17 27 -23 31 -6 4 -6 8 -1
8 6 0 -3 14 -20 32 -16 17 -23 28 -16 24 6 -4 12 -2 12 3 0 6 -4 11 -10 11 -5
0 -10 7 -10 15 0 8 -4 15 -10 15 -5 0 -10 7 -10 15 0 8 -4 15 -8 15 -4 0 -19
22 -33 50 -13 27 -27 50 -31 50 -5 0 -8 7 -8 16 0 8 -4 12 -10 9 -5 -3 -10 1
-10 10 0 9 -7 23 -15 32 -8 8 -13 19 -9 24 3 5 0 8 -7 7 -7 -2 -13 3 -14 10 0
8 -8 19 -17 26 -10 7 -18 17 -18 21 0 4 -16 27 -35 50 -19 23 -31 46 -27 50 4
5 1 5 -5 1 -7 -4 -13 -4 -13 1 0 9 -43 64 -77 100 -13 13 -23 28 -23 33 0 6
-4 10 -9 10 -5 0 -12 9 -16 20 -3 11 -9 19 -13 17 -4 -1 -8 2 -9 7 -1 5 -13
16 -27 26 -15 9 -23 19 -20 22 3 4 -4 11 -15 18 -12 6 -19 15 -16 21 4 5 -1 9
-10 9 -9 0 -19 9 -22 20 -3 11 -10 20 -15 20 -13 0 -68 56 -68 69 0 6 -5 11
-11 11 -6 0 -38 27 -71 60 -32 33 -62 60 -66 60 -4 0 -14 9 -22 20 -8 11 -21
20 -29 20 -8 0 -11 3 -8 7 7 7 -33 39 -45 36 -4 -2 -10 6 -13 17 -4 11 -11 20
-16 20 -5 0 -19 9 -31 19 -49 42 -67 57 -88 71 -12 8 -28 20 -35 27 -7 7 -15
9 -19 6 -3 -4 -6 1 -6 10 0 10 -8 17 -20 17 -11 0 -19 5 -17 12 1 7 -4 12 -11
13 -7 0 -17 7 -22 15 -5 8 -10 11 -10 5 0 -5 -7 -1 -15 9 -8 11 -15 16 -15 11
0 -4 -10 3 -22 16 -23 25 -30 29 -49 29 -5 0 -7 4 -4 10 4 6 -1 7 -11 3 -13
-5 -15 -3 -9 7 6 10 4 12 -8 7 -11 -4 -17 -1 -17 9 0 8 -4 12 -10 9 -5 -3 -10
-3 -10 2 0 4 -14 14 -30 21 -17 8 -28 18 -24 23 3 5 2 9 -3 8 -18 -3 -31 2
-53 21 -12 11 -27 17 -31 14 -5 -3 -9 2 -9 10 0 10 -6 13 -15 10 -8 -4 -17 1
-21 9 -3 9 -12 18 -20 21 -10 4 -13 1 -9 -7 4 -6 0 -4 -8 6 -8 9 -17 17 -21
17 -4 0 -19 9 -35 20 -15 12 -37 22 -48 23 -12 0 -21 6 -20 12 1 5 -4 9 -10 8
-7 -2 -13 2 -13 7 0 6 -9 10 -20 10 -11 0 -20 5 -20 11 0 5 -4 7 -10 4 -5 -3
-10 -1 -10 4 0 6 -7 11 -15 11 -9 0 -18 7 -22 16 -5 13 -7 13 -14 2 -7 -10 -9
-10 -9 0 0 6 -9 12 -20 12 -11 0 -20 5 -20 10 0 6 -5 10 -11 10 -6 0 -25 10
-42 22 -17 12 -27 16 -23 9 6 -10 3 -10 -15 1 -13 7 -29 19 -37 26 -17 15 -26
16 -17 1 4 -6 -2 -5 -14 3 -12 7 -21 16 -21 20 0 4 -7 5 -15 2 -8 -4 -17 1
-21 9 -3 9 -12 13 -21 10 -11 -4 -14 -2 -9 5 4 8 2 10 -7 6 -8 -3 -18 0 -22 5
-3 6 -11 9 -16 6 -5 -4 -9 -1 -9 5 0 6 -4 9 -9 5 -5 -3 -15 1 -23 8 -14 15
-20 17 -44 17 -8 0 -13 4 -10 8 3 5 -1 9 -9 10 -8 1 -22 3 -30 4 -8 1 -15 5
-15 10 0 4 -5 8 -11 8 -5 0 -7 -5 -3 -12 4 -7 -6 -2 -23 10 -17 12 -38 22 -47
22 -9 0 -16 4 -16 8 0 5 -7 9 -15 10 -8 1 -22 3 -30 4 -8 1 -15 5 -15 10 0 4
-3 7 -7 7 -25 -4 -53 2 -48 11 4 6 -8 10 -29 10 -20 0 -36 5 -36 10 0 6 -12
10 -26 10 -17 0 -23 4 -18 12 5 8 2 9 -10 5 -10 -4 -23 -4 -29 0 -7 4 -16 8
-22 9 -5 0 -16 2 -23 2 -7 1 -11 6 -8 11 4 5 -3 7 -15 4 -12 -3 -24 -1 -28 6
-4 6 -19 12 -34 13 -15 1 -27 5 -27 8 0 3 -8 7 -17 8 -35 4 -53 8 -59 15 -4 4
-20 7 -36 7 -15 0 -28 4 -28 9 0 6 -9 8 -20 6 -11 -2 -20 0 -20 5 0 5 -7 7
-15 4 -8 -4 -15 -2 -15 3 0 5 -16 9 -35 8 -25 0 -35 4 -35 15 0 12 -2 12 -9 1
-5 -8 -11 -9 -15 -3 -3 6 -17 9 -31 8 -15 -2 -22 1 -18 7 4 6 0 8 -10 4 -10
-3 -17 -2 -17 2 0 5 -8 8 -17 6 -10 -1 -24 2 -30 8 -9 6 -13 5 -13 -4 -1 -11
-3 -11 -13 1 -12 15 -22 17 -89 22 -21 2 -38 7 -38 12 0 5 -3 6 -7 3 -3 -4
-12 -2 -20 4 -10 9 -13 8 -13 -1 0 -9 -5 -9 -18 3 -11 10 -22 13 -31 7 -9 -5
-24 -2 -40 8 -18 12 -23 13 -17 3 7 -11 6 -12 -5 -5 -8 5 -22 7 -31 6 -10 -2
-18 2 -18 9 0 9 -3 9 -14 0 -9 -7 -15 -8 -18 -2 -1 6 -22 11 -45 12 -24 2 -43
8 -43 13 0 6 -5 4 -10 -4 -5 -8 -10 -10 -10 -4 0 7 -11 9 -26 6 -19 -3 -25 -1
-20 6 5 8 1 10 -9 6 -8 -4 -23 0 -32 7 -12 10 -15 10 -9 2 4 -7 2 -13 -3 -13
-6 0 -11 6 -11 13 0 8 -4 7 -10 -3 -8 -13 -11 -13 -19 -1 -5 7 -15 11 -22 9
-8 -3 -22 -1 -33 4 -14 8 -17 7 -11 -3 6 -9 3 -10 -11 -4 -10 4 -31 7 -46 6
-17 -1 -28 4 -28 11 0 9 -3 8 -10 -2 -9 -13 -10 -13 -10 0 0 13 -1 13 -10 0
-5 -8 -10 -10 -10 -4 0 6 -10 10 -22 9 -13 -1 -26 3 -30 9 -5 7 -8 6 -8 -4 0
-13 -1 -13 -10 0 -8 12 -10 12 -10 1 0 -11 -5 -10 -20 4 -20 18 -21 18 -14 -1
7 -17 6 -17 -9 -5 -9 7 -17 10 -17 5 0 -4 -5 -3 -12 4 -8 8 -17 8 -31 0 -15
-7 -22 -7 -28 3 -7 11 -9 11 -9 -1 0 -13 -2 -13 -9 -1 -8 12 -12 12 -25 2 -12
-10 -16 -11 -16 -1 0 7 -6 10 -14 7 -7 -3 -18 -1 -24 5 -6 6 -12 6 -17 -3 -6
-8 -4 -10 5 -4 9 5 11 4 6 -4 -5 -7 -12 -9 -19 -3 -19 14 -49 23 -42 12 3 -6
2 -10 -4 -10 -5 0 -12 4 -16 9 -3 6 -17 6 -35 1 -21 -6 -32 -4 -41 6 -8 9 -16
11 -23 5 -15 -13 -57 -11 -75 3 -11 8 -13 8 -8 -1 9 -15 -32 -14 -52 1 -11 8
-13 8 -7 -2 10 -16 -25 -13 -36 3 -5 6 -8 6 -8 -1 0 -7 -21 -11 -55 -11 -38 0
-53 3 -48 11 5 8 3 8 -8 0 -18 -14 -82 -16 -73 -3 3 6 -3 5 -14 -2 -16 -10
-24 -10 -34 -1 -10 8 -18 8 -25 1z m32 -171 c4 0 12 6 16 14 7 11 9 11 9 -1 0
-11 3 -11 15 -1 12 10 15 10 15 0 0 -10 3 -10 14 -1 10 9 16 9 21 1 5 -8 11
-8 21 1 11 9 14 9 14 0 0 -7 5 -9 13 -4 16 10 38 10 58 1 9 -4 21 -2 27 4 8 8
12 8 12 2 0 -6 7 -11 15 -11 8 0 15 5 15 10 0 5 7 4 15 -3 12 -10 15 -10 15 1
0 10 3 10 12 1 7 -7 17 -8 29 -2 12 7 20 6 24 0 5 -8 12 -7 23 2 13 11 14 11
7 -2 -8 -13 -7 -13 8 -1 9 7 17 9 17 4 0 -12 48 -15 55 -2 5 6 11 7 18 0 7 -5
27 -8 45 -7 18 1 36 -2 39 -7 3 -5 9 -3 14 4 6 10 9 11 9 2 0 -7 5 -13 11 -13
5 0 7 5 3 11 -4 8 -1 8 12 2 11 -5 31 -8 46 -7 15 2 30 -2 34 -7 4 -6 11 -6
20 2 10 8 14 8 14 0 0 -6 5 -11 11 -11 5 0 8 4 5 8 -3 5 1 9 9 9 8 0 15 -4 15
-9 0 -5 5 -6 10 -3 6 3 10 1 10 -5 0 -6 5 -8 10 -5 6 4 7 11 4 17 -4 5 5 2 20
-7 18 -12 26 -14 26 -5 0 8 4 9 13 3 6 -5 26 -9 44 -8 18 1 30 -2 27 -7 -6
-10 26 -6 45 6 10 7 12 5 6 -4 -6 -9 -2 -10 15 -5 15 5 20 4 16 -4 -5 -7 -1
-9 8 -5 10 4 16 1 16 -7 1 -9 4 -8 11 4 8 13 15 15 28 7 10 -5 21 -6 25 -3 3
3 6 2 6 -3 0 -5 15 -10 33 -11 62 -2 87 -7 87 -17 0 -6 5 -5 12 2 9 9 15 7 25
-6 8 -9 11 -11 7 -3 -6 11 -3 13 12 6 10 -4 29 -7 41 -7 12 1 25 -3 28 -9 5
-7 11 -6 21 2 10 8 14 8 14 1 0 -6 6 -9 14 -6 8 3 17 0 21 -6 4 -6 15 -8 26
-5 12 4 19 2 19 -7 0 -10 3 -9 10 2 8 12 10 12 10 -5 0 -17 2 -17 10 -5 9 13
10 13 10 0 0 -13 1 -13 10 0 8 12 10 12 10 1 0 -8 3 -11 6 -8 4 3 16 2 27 -4
15 -8 18 -8 12 1 -6 9 -3 9 13 1 12 -6 34 -12 49 -13 15 -1 34 -6 41 -11 6 -5
12 -6 12 -2 0 4 6 3 13 -3 6 -5 24 -8 40 -6 18 2 25 -1 21 -8 -5 -7 -1 -9 9
-5 10 4 17 1 17 -5 0 -6 3 -8 7 -5 3 4 13 1 21 -6 9 -6 13 -7 9 -1 -4 8 3 8
28 0 18 -6 31 -14 28 -19 -3 -5 3 -4 14 2 12 6 24 6 29 1 5 -5 21 -11 34 -14
14 -2 25 -5 25 -6 0 -2 28 -9 50 -12 11 -2 23 -7 27 -13 4 -5 18 -9 31 -10 13
0 31 -6 40 -14 12 -9 17 -10 17 -2 0 7 5 9 10 6 6 -4 8 -10 6 -14 -3 -4 5 -7
17 -5 12 1 32 -5 45 -13 12 -7 27 -11 31 -8 5 3 17 -2 25 -11 12 -11 16 -12
16 -2 0 10 3 9 10 -2 5 -8 10 -11 10 -6 0 5 6 3 13 -3 8 -6 17 -8 20 -4 4 3 7
2 7 -3 0 -5 10 -11 22 -11 13 -1 24 -7 26 -12 2 -5 10 -7 18 -4 8 3 14 -1 14
-8 0 -11 2 -11 10 1 8 12 10 12 16 -3 3 -9 10 -14 15 -11 5 3 9 -1 9 -8 0 -9
3 -9 10 2 6 9 10 10 10 3 0 -13 37 -28 59 -24 8 1 10 -2 5 -10 -5 -9 -1 -11
14 -7 13 4 23 0 27 -10 3 -8 8 -12 12 -9 3 4 15 1 27 -5 21 -12 27 -14 47 -17
5 0 7 -5 4 -11 -3 -6 1 -7 10 -4 8 4 26 -1 40 -10 13 -9 31 -16 40 -16 8 0 15
-4 15 -9 0 -5 7 -12 16 -15 8 -3 12 -2 9 4 -3 6 1 7 9 4 9 -3 16 -10 16 -15 0
-5 7 -9 15 -9 8 0 15 -6 16 -12 0 -10 2 -10 6 -1 3 9 11 7 26 -7 19 -18 38
-25 60 -21 4 0 7 -3 7 -9 0 -5 7 -10 16 -10 8 0 13 -4 10 -8 -3 -5 1 -9 9 -9
21 0 105 -44 105 -55 0 -5 4 -7 9 -3 5 3 17 -2 25 -11 9 -9 23 -13 32 -10 8 3
13 2 11 -2 -3 -4 7 -16 21 -26 14 -11 22 -14 18 -8 -4 6 17 -4 46 -23 29 -20
61 -38 70 -41 10 -3 18 -10 18 -16 0 -5 7 -7 16 -4 8 3 12 2 9 -3 -3 -5 10
-15 29 -22 19 -7 34 -17 33 -22 -1 -5 7 -11 17 -13 10 -1 22 -8 26 -14 4 -7
11 -12 16 -12 5 0 8 -4 7 -9 -2 -5 6 -9 17 -9 11 0 20 -4 20 -9 0 -5 9 -13 20
-16 11 -3 26 -12 32 -19 7 -6 30 -22 51 -35 20 -12 37 -27 37 -32 0 -5 7 -9
15 -9 8 0 15 -4 15 -10 0 -5 5 -10 10 -10 6 0 24 -13 42 -30 17 -16 35 -30 40
-30 6 0 23 -14 39 -31 16 -17 29 -29 29 -25 0 3 13 -7 30 -22 16 -15 46 -40
66 -57 20 -16 59 -51 88 -77 28 -26 55 -48 59 -48 5 0 5 -4 2 -10 -3 -5 -1
-10 5 -10 13 0 120 -106 120 -119 0 -5 9 -13 20 -16 11 -3 20 -10 20 -15 0 -5
27 -38 60 -72 33 -35 60 -69 60 -76 0 -7 5 -10 10 -7 6 3 10 -1 10 -10 0 -9 5
-13 10 -10 6 3 10 -1 10 -9 0 -9 5 -16 10 -16 6 0 10 -7 10 -15 0 -8 7 -15 16
-15 8 0 12 -4 9 -10 -3 -5 -1 -10 6 -10 7 0 9 -3 6 -6 -3 -4 7 -19 24 -35 16
-15 30 -32 29 -36 0 -4 7 -16 15 -26 8 -9 15 -22 15 -27 0 -6 4 -10 10 -10 8
0 41 -52 40 -65 0 -3 9 -14 20 -25 12 -12 18 -25 15 -30 -4 -6 1 -10 9 -10 16
0 42 -38 32 -47 -3 -3 0 -11 7 -18 42 -44 59 -73 35 -59 -7 4 -1 -6 15 -23 15
-16 24 -32 20 -36 -3 -4 -2 -7 4 -7 6 0 14 -11 17 -25 4 -14 11 -25 17 -25 6
0 7 -5 3 -11 -3 -6 -2 -14 3 -18 16 -10 43 -73 36 -84 -3 -6 -1 -7 5 -3 8 5
12 0 12 -13 0 -12 5 -21 11 -21 5 0 7 -4 4 -10 -3 -5 -1 -10 5 -10 6 0 8 -4 5
-10 -3 -5 -1 -10 6 -10 6 0 9 -8 6 -19 -3 -12 1 -22 11 -26 8 -3 12 -8 9 -12
-4 -3 -2 -12 4 -19 6 -8 9 -20 6 -28 -3 -8 1 -17 9 -20 9 -3 12 -10 9 -16 -3
-5 -1 -10 5 -10 6 0 9 -4 5 -9 -3 -5 0 -13 6 -16 5 -4 8 -13 5 -21 -3 -8 -1
-14 5 -14 6 0 8 -4 5 -8 -3 -5 2 -21 9 -36 8 -16 12 -32 9 -37 -3 -5 0 -9 6
-9 6 0 8 -5 5 -10 -4 -6 -1 -17 5 -25 7 -8 9 -15 6 -15 -4 0 -2 -9 4 -20 8
-15 8 -20 -2 -20 -6 0 -4 -6 7 -13 10 -8 15 -19 11 -25 -3 -6 -2 -13 3 -17 6
-3 8 -12 4 -20 -3 -8 -1 -15 4 -15 5 0 10 -17 11 -37 2 -20 8 -44 15 -52 10
-12 9 -13 -3 -6 -13 8 -13 7 -1 -8 11 -14 11 -17 0 -17 -10 -1 -8 -4 4 -11 9
-5 17 -15 17 -20 0 -6 -6 -7 -12 -3 -9 6 -9 3 0 -9 8 -9 11 -21 8 -26 -4 -5
-2 -12 4 -16 6 -4 8 -11 4 -16 -3 -5 0 -17 8 -26 11 -15 11 -16 -7 -10 -17 6
-18 5 -5 -5 8 -7 15 -22 15 -33 -1 -11 4 -23 10 -27 6 -5 6 -8 -2 -8 -9 0 -10
-7 -3 -25 7 -17 6 -25 -1 -25 -8 0 -8 -4 -1 -12 5 -7 9 -34 8 -60 0 -25 3 -44
7 -41 5 3 7 -11 4 -31 -3 -23 -1 -36 7 -36 7 0 8 -3 0 -8 -6 -4 -10 -43 -9
-97 0 -49 -3 -96 -8 -102 -6 -8 -6 -13 1 -13 7 0 8 -10 3 -27 -4 -16 -6 -34
-3 -42 2 -8 0 -11 -5 -8 -5 3 -10 0 -10 -8 0 -8 5 -15 10 -15 6 0 6 -5 1 -12
-5 -7 -9 -22 -9 -33 0 -11 -4 -23 -10 -27 -6 -5 -5 -8 3 -8 9 0 10 -5 4 -17
-5 -10 -8 -26 -7 -35 2 -10 -2 -18 -8 -18 -8 0 -7 -3 2 -9 9 -6 10 -11 3 -15
-6 -4 -9 -13 -5 -21 3 -9 -1 -15 -8 -15 -11 0 -11 -3 1 -10 8 -5 10 -10 5 -10
-6 0 -12 -8 -12 -17 -7 -62 -10 -75 -23 -83 -10 -7 -11 -10 -2 -10 6 0 12 -5
12 -11 0 -5 -4 -8 -9 -5 -4 3 -7 -6 -5 -19 1 -14 -1 -25 -6 -25 -4 0 -8 -6 -7
-12 1 -35 -4 -59 -11 -54 -4 2 -9 -6 -10 -20 -5 -55 -7 -64 -14 -64 -4 0 -5
-7 -2 -15 4 -8 1 -15 -5 -15 -6 0 -11 -11 -11 -24 0 -14 -5 -28 -10 -31 -6 -4
-8 -16 -4 -27 4 -14 2 -18 -5 -14 -6 4 -11 1 -12 -6 -2 -31 -8 -52 -20 -58 -6
-4 -8 -13 -5 -19 4 -6 2 -11 -4 -11 -6 0 -8 -4 -5 -10 3 -6 2 -10 -4 -10 -6 0
-8 -7 -5 -15 4 -8 1 -15 -7 -15 -7 0 -9 -3 -6 -7 4 -3 2 -12 -4 -20 -6 -7 -8
-13 -3 -13 4 0 -1 -7 -12 -16 -10 -8 -12 -12 -4 -8 13 7 13 6 0 -10 -8 -10
-15 -25 -16 -34 -2 -8 -9 -19 -17 -23 -8 -5 -13 -20 -12 -34 2 -14 0 -23 -5
-20 -4 3 -14 -3 -21 -12 -12 -14 -12 -16 1 -8 13 8 13 7 1 -8 -7 -9 -10 -17
-7 -17 4 0 -2 -10 -13 -22 -11 -11 -18 -25 -15 -30 3 -4 0 -8 -6 -8 -6 0 -8
-5 -5 -10 3 -6 1 -10 -4 -10 -6 0 -11 -7 -11 -16 0 -9 -5 -12 -12 -8 -6 4 -8
3 -5 -3 4 -6 -1 -21 -11 -34 -10 -13 -26 -41 -37 -62 -11 -20 -22 -37 -25 -37
-3 0 -11 -14 -18 -30 -8 -17 -18 -28 -23 -24 -5 3 -9 2 -8 -3 3 -19 -3 -31
-31 -63 -16 -18 -27 -36 -25 -40 3 -5 -2 -11 -11 -14 -9 -4 -14 -9 -11 -13 4
-3 -5 -15 -19 -25 -14 -11 -23 -23 -20 -26 3 -3 -4 -14 -17 -24 -12 -11 -22
-23 -22 -27 0 -4 -8 -15 -17 -25 -10 -10 -18 -21 -18 -26 0 -5 -9 -11 -19 -15
-11 -3 -18 -12 -15 -20 3 -7 0 -16 -7 -21 -8 -5 -10 -3 -5 7 4 8 1 6 -6 -5 -7
-10 -41 -48 -75 -84 -35 -36 -63 -69 -63 -72 0 -4 -11 -13 -25 -20 -14 -7 -23
-15 -21 -18 6 -6 -46 -58 -56 -55 -4 2 -10 -6 -13 -17 -4 -11 -13 -20 -21 -20
-8 0 -12 -5 -9 -10 3 -5 2 -10 -2 -10 -8 0 -46 -33 -157 -138 -22 -20 -36 -30
-32 -22 5 8 -3 2 -18 -14 -14 -16 -26 -26 -26 -21 0 4 -12 -5 -27 -21 -15 -16
-31 -28 -35 -26 -4 1 -8 -2 -8 -8 0 -5 -5 -10 -11 -10 -7 0 -23 -12 -37 -28
-13 -15 -21 -20 -17 -12 4 8 -4 3 -17 -12 -14 -15 -28 -25 -32 -21 -3 3 -6 0
-6 -7 0 -7 -3 -10 -7 -7 -3 4 -13 -2 -20 -13 -8 -11 -19 -18 -24 -15 -5 4 -9
-1 -9 -10 0 -9 -4 -13 -10 -10 -5 3 -10 1 -10 -5 0 -6 -4 -9 -9 -5 -6 3 -14
-3 -20 -12 -6 -10 -11 -14 -11 -10 0 8 -15 -3 -52 -38 -13 -12 -18 -14 -14 -5
5 9 2 9 -7 -2 -8 -10 -17 -15 -20 -11 -4 3 -7 1 -7 -5 0 -7 -7 -12 -15 -12 -8
0 -15 -3 -15 -7 0 -13 -61 -43 -72 -36 -7 3 -8 1 -4 -5 7 -11 -6 -17 -27 -13
-5 1 -6 -3 -2 -8 3 -6 -4 -15 -16 -21 -17 -10 -20 -9 -14 2 3 7 -2 3 -13 -9
-11 -13 -27 -23 -36 -23 -9 0 -16 -5 -16 -11 0 -5 -4 -7 -10 -4 -5 3 -10 1
-10 -4 0 -6 -6 -11 -14 -11 -8 0 -17 -7 -20 -16 -5 -14 -9 -14 -23 -3 -12 10
-15 10 -9 1 5 -8 -3 -16 -21 -24 -15 -6 -31 -11 -35 -10 -5 1 -8 -3 -8 -9 0
-5 -4 -7 -10 -4 -5 3 -10 2 -10 -2 0 -5 -9 -14 -21 -21 -17 -11 -20 -11 -13 0
4 7 -1 5 -12 -4 -10 -9 -26 -18 -34 -20 -8 -2 -21 -11 -28 -21 -7 -9 -18 -15
-23 -11 -5 3 -16 0 -24 -6 -8 -7 -15 -9 -15 -4 0 4 -6 0 -13 -10 -8 -11 -20
-17 -27 -14 -8 2 -22 -2 -32 -11 -9 -8 -25 -16 -35 -17 -10 -2 -19 -7 -21 -13
-2 -5 -10 -7 -18 -4 -8 3 -14 1 -14 -5 0 -9 -47 -27 -62 -24 -5 1 -8 -3 -8 -9
0 -5 -4 -7 -10 -4 -5 3 -10 1 -10 -5 0 -6 -4 -8 -10 -5 -5 3 -10 1 -10 -5 0
-6 -5 -8 -10 -5 -6 4 -17 1 -25 -5 -8 -6 -20 -8 -26 -4 -8 4 -9 3 -5 -4 5 -8
-1 -12 -14 -12 -13 0 -19 -4 -14 -12 4 -7 3 -8 -5 -4 -6 4 -19 2 -28 -6 -14
-11 -15 -11 -9 0 7 11 4 11 -15 0 -13 -7 -27 -17 -31 -23 -4 -5 -8 -7 -8 -2 0
4 -14 0 -31 -8 -17 -9 -37 -14 -45 -11 -7 3 -16 0 -20 -6 -5 -7 -2 -8 6 -3 8
5 11 4 6 -3 -3 -6 -15 -9 -26 -7 -11 2 -20 -1 -20 -7 0 -6 -3 -8 -7 -5 -3 4
-13 1 -21 -6 -13 -9 -14 -9 -8 0 4 7 3 13 -2 13 -6 0 -13 -7 -16 -16 -4 -9 -9
-14 -13 -11 -3 4 -12 2 -20 -4 -10 -9 -13 -8 -13 2 0 8 -5 6 -13 -6 -8 -10
-19 -15 -25 -11 -6 3 -14 1 -17 -5 -4 -5 -13 -8 -21 -5 -8 3 -14 2 -14 -2 0
-4 -12 -9 -27 -10 -15 -1 -29 -5 -32 -10 -3 -4 -14 -8 -25 -10 -10 -2 -30 -8
-45 -14 -29 -12 -67 -20 -93 -19 -10 0 -20 -5 -23 -10 -4 -5 -11 -7 -16 -4 -5
4 -9 2 -9 -4 0 -6 -7 -8 -15 -5 -8 4 -15 1 -15 -5 0 -9 -5 -9 -20 -1 -16 8
-22 8 -26 -4 -3 -8 -16 -13 -30 -11 -13 1 -27 -2 -30 -6 -3 -5 -16 -9 -30 -9
-18 0 -23 -4 -18 -12 6 -10 4 -10 -8 0 -12 9 -18 10 -23 2 -4 -6 -13 -9 -21
-6 -8 3 -14 1 -14 -4 0 -5 -9 -7 -20 -5 -11 2 -22 -1 -26 -7 -4 -6 -10 -5 -15
3 -7 11 -9 11 -9 1 0 -7 -4 -10 -10 -7 -5 3 -10 1 -10 -5 0 -8 -6 -7 -21 1
-15 8 -19 8 -15 0 7 -11 0 -13 -41 -14 -13 0 -23 -3 -23 -6 0 -3 -15 -6 -32
-5 -41 0 -59 -5 -53 -16 3 -5 -8 -5 -25 0 -25 7 -30 6 -30 -8 0 -13 -2 -14 -9
-3 -7 10 -13 11 -31 1 -18 -10 -21 -10 -14 2 6 10 5 11 -7 2 -8 -6 -21 -12
-29 -12 -18 -1 -74 -9 -115 -16 -16 -3 -51 -6 -77 -7 -26 -1 -45 -5 -43 -8 2
-4 -5 -7 -15 -7 -10 0 -17 3 -15 6 2 4 -2 7 -10 7 -8 0 -12 -5 -8 -10 3 -5 -3
-6 -16 -2 -13 4 -21 2 -21 -6 0 -9 -3 -9 -14 0 -10 9 -16 9 -21 1 -5 -8 -11
-7 -23 2 -13 10 -14 10 -8 0 6 -9 1 -11 -18 -8 -16 3 -26 0 -27 -7 0 -9 -2 -8
-6 1 -2 6 -10 9 -16 5 -18 -11 -47 -11 -47 1 0 5 -7 1 -16 -10 -8 -10 -13 -14
-10 -8 3 7 -1 14 -9 18 -8 3 -14 2 -14 -2 3 -21 -3 -24 -17 -6 -8 10 -13 14
-10 8 3 -7 -1 -14 -9 -18 -8 -3 -15 0 -16 7 0 8 -2 7 -6 -2 -5 -11 -7 -11 -14
0 -7 12 -9 12 -9 0 0 -11 -3 -11 -15 -1 -9 8 -15 9 -15 2 0 -6 -9 -9 -20 -7
-11 2 -20 -2 -20 -8 0 -8 -3 -8 -9 1 -11 18 -15 19 -33 5 -8 -7 -18 -10 -22
-6 -11 11 -35 12 -42 2 -3 -5 -13 -5 -25 1 -10 6 -19 7 -19 2 0 -4 -9 -8 -20
-8 -11 0 -20 4 -20 9 0 5 -6 4 -14 -2 -10 -8 -16 -9 -21 -1 -4 7 -12 7 -26 0
-14 -8 -19 -7 -19 2 0 10 -2 10 -9 0 -11 -18 -12 -18 -38 -3 -18 9 -23 9 -23
-1 0 -9 -3 -9 -12 0 -8 8 -15 9 -25 1 -10 -9 -13 -8 -13 2 0 11 -2 11 -10 -1
-9 -13 -11 -13 -20 0 -9 13 -10 13 -10 0 0 -13 -1 -13 -10 0 -8 12 -10 12 -10
1 0 -10 -3 -11 -13 -3 -8 7 -18 7 -27 2 -9 -5 -19 -5 -27 2 -10 8 -13 7 -13
-3 0 -9 -3 -10 -8 -3 -9 13 -52 13 -52 0 0 -5 -6 -2 -13 9 -10 12 -16 14 -21
7 -4 -7 -12 -12 -17 -12 -6 0 -8 3 -6 8 3 4 -12 7 -33 7 -21 1 -36 -3 -34 -7
3 -4 -6 -4 -20 2 -14 5 -26 7 -26 4 0 -4 -8 0 -17 7 -10 8 -14 9 -10 2 5 -8 0
-11 -13 -10 -11 1 -20 5 -20 10 0 5 -7 4 -15 -3 -11 -9 -15 -9 -15 -1 0 8 -5
9 -18 2 -13 -7 -23 -6 -30 1 -7 7 -12 8 -12 4 0 -5 -7 -3 -15 4 -9 8 -15 8
-15 2 0 -7 -10 -8 -27 -3 -16 4 -34 6 -42 3 -8 -3 -11 0 -7 6 7 11 -12 11 -31
-1 -7 -5 -13 -4 -13 1 0 5 -16 9 -36 10 -20 1 -46 4 -57 8 -15 5 -17 3 -11 -7
6 -11 4 -11 -10 0 -9 8 -40 16 -69 18 -28 2 -55 9 -59 16 -5 7 -8 8 -8 1 0 -9
-31 -11 -50 -4 -3 1 -8 2 -12 1 -5 0 -8 5 -8 11 0 9 -4 8 -10 -2 -5 -8 -10
-10 -10 -4 0 6 -13 10 -30 9 -16 -1 -30 2 -30 6 0 4 -10 7 -22 8 -70 3 -86 6
-82 13 3 4 -1 8 -10 8 -8 0 -17 -6 -19 -12 -4 -9 -6 -7 -6 3 -1 11 -9 15 -26
14 -14 -2 -25 1 -25 7 0 6 -6 5 -15 -2 -9 -7 -15 -8 -15 -2 0 5 -7 13 -16 16
-8 3 -13 2 -10 -3 4 -5 -3 -7 -14 -4 -11 3 -20 10 -20 17 0 6 -5 4 -10 -4 -6
-10 -10 -11 -10 -2 0 7 -13 12 -29 12 -17 0 -33 5 -36 10 -4 6 -11 8 -16 4 -5
-3 -17 0 -26 8 -14 11 -16 11 -8 -2 7 -12 6 -13 -7 -3 -8 7 -18 10 -21 6 -4
-3 -7 -2 -7 4 0 6 -9 9 -20 6 -15 -4 -20 0 -21 13 0 18 -1 18 -8 1 -6 -17 -8
-17 -20 -3 -7 9 -25 16 -40 16 -15 0 -33 6 -40 13 -10 8 -12 8 -7 0 4 -7 -5
-6 -24 4 -17 8 -42 16 -57 18 -14 1 -29 9 -34 16 -7 12 -9 11 -9 -1 0 -9 -3
-11 -8 -5 -7 10 -27 17 -49 18 -7 0 -13 3 -13 7 0 4 -6 7 -14 7 -22 0 -106 25
-106 32 0 3 -12 7 -27 8 -15 0 -29 6 -31 12 -2 6 -8 9 -13 5 -5 -3 -9 1 -9 8
0 9 -3 9 -10 -2 -7 -11 -10 -11 -10 -2 0 7 -4 10 -10 7 -5 -3 -10 -1 -10 5 0
6 -4 8 -10 5 -5 -3 -10 0 -11 7 0 10 -2 10 -6 1 -3 -10 -8 -9 -20 2 -8 8 -18
13 -23 10 -4 -3 -10 2 -14 10 -3 8 -12 12 -21 9 -8 -4 -22 -1 -30 6 -8 7 -15
9 -15 4 0 -5 -4 -3 -8 3 -4 7 -19 14 -32 15 -14 2 -28 7 -31 11 -3 5 -15 10
-25 11 -10 2 -18 8 -17 14 1 5 -7 8 -17 5 -11 -3 -20 0 -20 6 0 6 -11 11 -25
11 -14 0 -25 5 -25 11 0 5 -4 8 -9 5 -5 -3 -11 1 -14 9 -4 8 -15 12 -27 10
-11 -2 -20 1 -20 6 0 6 -4 7 -10 4 -5 -3 -10 -1 -10 5 0 6 -4 8 -10 5 -5 -3
-10 -1 -10 5 0 7 -7 9 -16 6 -10 -4 -13 -2 -8 6 5 8 2 9 -10 5 -10 -4 -19 -1
-23 9 -3 8 -12 13 -20 10 -9 -4 -11 -2 -7 6 5 8 2 9 -9 5 -10 -3 -17 -2 -17 3
0 6 -7 10 -15 10 -8 0 -15 5 -15 11 0 6 -7 8 -15 5 -9 -3 -18 1 -21 9 -4 8
-10 12 -15 9 -5 -3 -9 0 -9 6 0 7 -7 10 -15 6 -8 -3 -18 2 -23 10 -5 8 -16 16
-26 18 -10 1 -21 8 -25 15 -5 7 -10 12 -12 10 -2 -1 -24 9 -49 22 -25 12 -48
22 -53 21 -4 -1 -7 2 -7 8 0 5 -5 10 -12 10 -6 0 -19 7 -29 16 -21 19 -77 52
-101 60 -10 4 -18 10 -18 15 0 5 -7 9 -15 9 -8 0 -15 4 -15 9 0 9 -38 24 -53
22 -5 -1 -6 3 -3 8 4 5 -3 12 -14 16 -11 3 -20 11 -20 16 0 5 -7 9 -15 9 -8 0
-15 5 -15 11 0 5 -4 8 -9 4 -6 -3 -15 4 -21 15 -6 11 -17 20 -24 20 -7 0 -25
11 -40 25 -15 14 -32 22 -38 19 -6 -4 -8 -2 -5 3 7 11 -20 28 -36 24 -5 -1 -6
3 -2 9 3 5 3 10 -2 10 -4 0 -20 10 -35 23 -15 12 -41 33 -59 47 -18 14 -37 30
-44 35 -6 6 -35 30 -65 55 -30 24 -56 48 -58 52 -2 5 -10 8 -18 8 -9 0 -13 3
-11 8 3 4 -12 20 -34 36 -21 17 -39 34 -39 39 0 4 -5 5 -10 2 -6 -4 -9 -2 -8
2 2 5 -32 43 -74 85 -42 42 -74 79 -71 82 4 3 -1 6 -11 6 -9 0 -15 3 -13 8 7
10 -19 32 -29 24 -4 -4 -4 1 0 12 5 14 2 17 -9 12 -9 -3 -13 -2 -10 4 3 6 1
10 -4 10 -6 0 -11 7 -11 15 0 8 -6 15 -13 15 -8 0 -20 12 -28 27 -8 14 -29 42
-47 60 -18 19 -30 39 -26 45 4 7 3 8 -4 4 -7 -4 -12 -1 -12 8 0 9 -7 16 -15
16 -8 0 -15 9 -15 19 0 10 -7 21 -15 25 -8 3 -20 17 -25 31 -5 14 -14 25 -19
25 -5 0 -13 9 -16 20 -3 11 -12 26 -19 32 -17 18 -76 111 -78 123 0 6 -8 15
-17 22 -9 7 -12 13 -8 13 5 0 1 7 -7 16 -9 8 -14 20 -11 25 4 5 0 9 -7 9 -7 0
-18 11 -25 25 -8 19 -8 24 0 19 7 -3 5 0 -4 8 -9 7 -19 23 -23 36 -4 12 -12
22 -17 22 -5 0 -8 3 -8 8 3 20 -2 32 -13 26 -7 -4 -8 -3 -4 5 4 6 2 18 -4 26
-7 8 -9 15 -5 15 4 0 -3 9 -16 21 -13 11 -18 18 -11 14 6 -3 12 -1 12 4 0 6
-5 11 -11 11 -5 0 -7 4 -4 10 3 6 1 10 -4 10 -6 0 -11 7 -11 15 0 8 -4 15 -10
15 -5 0 -7 6 -4 14 3 7 -2 20 -10 29 -9 9 -16 25 -16 36 0 11 -5 23 -10 26 -6
3 -10 15 -10 26 0 10 -5 19 -11 19 -5 0 -7 5 -4 10 3 6 0 10 -7 10 -11 0 -11
2 0 9 10 6 10 10 -2 21 -9 7 -13 16 -10 21 3 5 -1 9 -8 9 -9 0 -9 3 2 10 11 7
11 10 2 10 -7 0 -10 5 -7 10 3 6 1 10 -4 10 -6 0 -11 14 -11 31 0 16 -4 28 -8
25 -4 -2 -9 10 -10 27 -2 17 -6 34 -10 37 -8 6 -11 19 -14 55 -1 14 -6 25 -11
25 -4 0 -5 5 -2 10 3 6 1 10 -4 10 -6 0 -11 5 -11 11 0 5 4 7 10 4 12 -7 -6
43 -21 61 -7 8 -6 15 2 20 8 5 9 3 4 -6 -6 -9 -4 -11 5 -5 10 6 9 11 -4 21
-11 8 -13 14 -7 19 8 4 6 12 -5 22 -12 13 -13 17 -2 24 11 7 11 9 -1 9 -8 0
-11 7 -8 20 3 11 1 20 -3 20 -4 0 -6 10 -2 22 4 15 2 19 -7 13 -10 -6 -11 -3
-3 12 7 12 7 25 1 34 -13 20 -11 52 2 43 6 -3 3 5 -6 20 -13 19 -14 26 -4 26
8 0 5 6 -7 16 -17 14 -17 15 -1 10 15 -5 16 -2 7 14 -6 11 -8 20 -5 20 4 0 3
6 -1 12 -12 19 -12 48 0 48 7 0 7 3 -1 8 -6 4 -10 27 -9 55 1 27 -3 47 -9 48
-5 0 -4 3 3 6 10 4 10 8 1 19 -6 8 -8 14 -3 14 5 0 9 21 8 47 0 27 2 57 7 69
4 11 3 28 -2 37 -6 9 -6 17 -1 17 5 0 8 20 8 45 -1 25 4 45 9 45 6 0 3 5 -5
10 -11 7 -12 10 -2 10 9 0 11 7 7 21 -5 15 -4 19 5 14 9 -6 9 -3 1 14 -9 16
-9 21 1 21 9 0 9 3 -2 10 -12 7 -12 10 -1 10 7 0 11 6 8 15 -4 8 -3 17 2 19 4
3 7 15 6 28 -1 13 3 29 9 37 9 12 8 13 -4 7 -8 -4 -6 0 4 8 15 12 16 16 5 16
-9 0 -10 3 -3 8 6 4 10 19 9 34 -1 15 1 25 5 23 4 -3 8 5 8 18 1 12 3 31 6 42
2 11 5 26 5 33 1 7 5 11 9 8 5 -3 6 9 4 26 -3 21 -1 29 7 24 7 -5 9 -1 5 8 -3
9 -1 16 5 16 6 0 8 7 5 15 -4 9 0 15 7 15 12 0 12 2 0 9 -9 6 -10 11 -2 15 6
4 9 12 6 17 -4 5 -1 9 4 9 6 0 11 11 11 25 0 14 4 25 8 25 4 0 8 8 8 18 1 27
8 45 22 60 7 8 10 17 7 22 -3 5 -1 11 5 15 6 4 8 11 5 16 -4 5 -1 9 5 9 6 0 8
5 5 10 -3 6 -1 10 5 10 6 0 8 5 5 10 -3 6 0 10 7 10 10 0 10 2 -1 9 -11 7 -10
11 5 20 11 6 15 11 10 11 -5 0 -3 7 4 15 7 8 9 15 5 15 -5 0 -1 8 7 18 16 18
33 61 30 75 -1 4 3 7 8 7 6 0 10 7 10 15 0 8 5 15 11 15 5 0 8 4 4 9 -3 5 2
16 10 24 8 9 15 20 15 25 0 18 27 62 33 55 4 -3 7 3 7 15 0 12 5 22 10 22 6 0
10 7 10 15 0 8 5 15 11 15 5 0 7 5 4 10 -3 6 -1 10 5 10 6 0 9 4 6 9 -4 5 8
23 25 40 17 17 23 28 14 25 -12 -5 -10 1 7 19 39 42 47 55 41 61 -4 3 -1 6 6
6 7 0 9 5 6 10 -3 6 1 10 10 10 9 0 14 4 11 8 -3 5 8 23 23 40 16 17 27 32 25
34 -2 2 12 21 31 42 19 22 32 43 29 47 -3 5 0 9 6 9 6 0 18 7 26 15 9 8 12 15
7 15 -4 0 5 12 20 26 15 14 24 30 21 37 -4 7 -4 9 1 5 8 -8 35 15 35 31 0 5 9
13 21 16 12 4 18 12 15 21 -3 8 -1 14 5 14 5 0 23 14 39 30 16 17 28 30 26 30
-3 0 20 25 49 55 30 30 59 55 65 55 6 0 10 3 8 8 -4 7 47 60 60 63 4 0 6 5 5
10 -2 5 1 9 7 9 9 0 45 31 116 97 19 18 34 29 34 25 0 -4 5 1 11 11 6 9 14 15
20 12 5 -4 9 1 9 9 0 9 4 16 10 16 5 0 19 10 30 23 12 12 24 22 28 22 8 0 15
5 65 50 16 14 33 23 38 19 5 -3 8 0 7 8 -2 7 3 12 10 11 6 -2 12 2 12 8 0 5 5
7 10 4 6 -4 9 -1 8 7 -2 7 5 12 15 12 9 -1 17 4 17 12 0 8 7 14 16 14 9 0 12
5 8 12 -4 6 -3 8 4 4 6 -3 18 2 28 11 10 10 22 18 27 18 5 0 14 7 20 16 7 9
20 15 30 13 9 -1 15 1 12 6 -3 4 6 15 20 24 14 9 25 13 25 9 0 -5 5 0 11 10 6
9 14 15 20 12 5 -4 12 1 15 9 3 9 10 13 15 10 5 -3 9 0 9 6 0 6 5 8 10 5 6 -3
10 -1 10 4 0 6 7 11 16 11 9 0 12 5 8 12 -5 8 -2 9 9 5 11 -4 20 1 27 13 6 11
14 19 18 19 22 -4 42 2 37 11 -5 9 9 15 18 8 2 -2 12 5 22 15 9 10 24 16 32
13 8 -3 12 -2 8 3 -3 5 8 15 25 23 16 7 30 17 30 23 0 5 5 3 10 -5 5 -8 10
-10 10 -5 0 6 17 19 37 30 21 11 41 24 45 30 4 5 8 7 8 2 0 -4 11 0 25 9 14 9
25 13 25 10 0 -4 12 4 26 17 16 15 34 23 45 20 11 -3 21 1 25 11 3 9 10 13 15
10 6 -3 16 0 24 6 8 6 19 9 24 6 5 -4 13 -1 17 5 5 8 3 9 -7 4 -10 -6 -11 -5
-3 4 6 7 21 13 33 14 11 1 21 5 21 10 0 5 7 6 16 3 8 -3 13 -2 10 3 -3 5 10
12 29 15 19 4 35 11 35 15 0 5 7 12 16 15 9 4 13 2 8 -5 -4 -8 0 -7 15 0 11 7
21 17 21 23 0 9 3 9 11 1 9 -9 15 -8 26 3 8 8 23 14 34 14 10 0 19 6 19 13 0
8 4 7 10 -3 8 -13 10 -12 10 3 0 9 5 17 11 17 5 0 7 -6 4 -12 -4 -7 -1 -6 7 3
7 9 23 15 35 14 12 -1 20 2 17 6 -2 4 0 10 6 14 5 3 10 1 10 -6 0 -8 3 -9 13
0 8 6 17 7 21 3 4 -4 6 0 4 8 -1 8 3 14 10 12 7 -1 28 4 46 12 19 8 37 12 40
8 3 -3 6 0 6 7 0 7 4 10 9 6 5 -3 13 0 17 6 4 8 9 7 15 -2 7 -12 9 -12 9 0 0
8 6 11 16 7 9 -3 12 -2 9 5 -4 6 -1 10 6 8 26 -3 40 1 34 10 -3 6 6 8 20 5 15
-2 25 0 25 7 0 6 7 9 15 5 8 -3 15 -1 15 4 0 5 7 7 15 4 8 -4 15 -1 15 4 0 6
9 9 20 7 11 -2 20 0 20 4 0 5 10 8 23 7 12 -1 28 4 35 11 8 7 18 11 23 8 5 -4
9 0 10 7 0 10 2 10 6 1 3 -10 10 -10 31 1 15 7 33 11 40 9 6 -3 12 0 12 5 0 6
11 9 25 7 14 -1 25 2 25 7 0 5 4 7 9 3 5 -3 12 -1 16 5 3 5 12 10 18 10 7 0 6
-4 -3 -10 -8 -5 -10 -10 -5 -10 6 0 15 4 20 9 6 5 21 12 34 16 18 5 22 4 17
-6 -5 -9 -2 -8 6 1 7 9 20 15 28 15 8 0 18 4 22 10 5 6 8 5 8 -3 0 -10 4 -9
16 3 14 13 19 14 26 3 8 -10 11 -10 15 0 2 6 15 12 28 12 13 0 27 5 31 11 4 8
9 8 17 0 7 -7 14 -7 24 0 10 9 13 8 13 -2 1 -10 4 -9 11 3 5 10 16 15 25 11 9
-3 20 0 25 8 6 10 9 10 9 2 0 -9 7 -10 26 -3 14 6 30 8 35 4 5 -3 9 -1 9 3 0
5 14 8 30 7 17 -1 30 1 30 4 0 4 16 8 35 9 25 1 34 -2 29 -10 -3 -7 1 -4 9 5
8 10 17 15 20 12 3 -3 15 0 27 6 12 7 20 8 17 3 -4 -5 0 -10 8 -10 8 0 12 4 9
9 -3 4 0 8 5 8 6 0 11 -6 11 -12 0 -9 3 -9 9 1 5 8 18 12 30 8 12 -3 21 -1 21
5 0 5 5 6 10 3 6 -4 18 -1 27 7 14 11 16 11 9 -1 -7 -10 -4 -12 12 -7 40 13
62 15 67 5 4 -5 15 -3 27 6 16 11 25 12 35 3 10 -8 13 -7 13 2 0 7 7 10 15 7
8 -4 17 -2 21 4 4 6 11 6 20 -2 11 -9 14 -8 15 2 0 11 2 11 6 1 4 -10 8 -10
20 -1 12 10 16 10 24 -2 5 -8 9 -9 9 -3 0 6 21 10 50 10 28 -1 50 3 50 9 0 5
5 3 10 -5 9 -13 10 -13 10 0 0 9 3 11 8 5 9 -13 35 -18 27 -6 -3 6 10 9 35 6
27 -3 40 0 40 8 0 8 3 8 9 -1 4 -8 12 -14 16 -14z"/>
<path d="M5184 8141 c5 -8 -7 -10 -43 -8 -28 1 -51 0 -51 -3 0 -3 -22 -5 -50
-4 -28 1 -50 -3 -50 -8 0 -6 -7 -5 -15 2 -12 10 -15 10 -15 0 0 -10 -3 -10
-15 0 -8 7 -15 8 -15 3 0 -5 -21 -11 -47 -12 -27 -1 -61 -4 -78 -7 -16 -3 -44
-7 -61 -8 -17 -2 -41 -7 -53 -11 -18 -5 -22 -4 -17 6 4 8 0 5 -8 -5 -10 -13
-16 -15 -16 -7 0 11 -3 11 -17 0 -15 -12 -16 -12 -8 1 7 12 6 13 -6 3 -9 -7
-30 -13 -47 -15 -18 -1 -32 -7 -32 -13 0 -5 -4 -4 -9 4 -6 9 -11 10 -15 3 -4
-6 -14 -8 -23 -5 -11 4 -14 3 -9 -5 4 -7 2 -12 -3 -12 -6 0 -11 6 -11 13 0 8
-4 7 -10 -3 -5 -8 -10 -11 -10 -7 0 4 -9 3 -20 -3 -15 -8 -20 -8 -20 2 0 8 -3
9 -8 3 -4 -5 -14 -12 -22 -13 -17 -5 -59 -13 -78 -16 -7 -1 -17 -7 -24 -14 -8
-8 -15 -9 -25 -1 -8 8 -13 8 -13 1 0 -6 -11 -9 -25 -7 -14 1 -25 -2 -25 -7 0
-6 -7 -7 -16 -4 -10 4 -13 2 -8 -6 5 -7 2 -9 -8 -5 -9 3 -27 -1 -42 -8 -15 -8
-24 -10 -21 -5 7 11 -41 -7 -63 -23 -7 -6 -15 -7 -19 -4 -3 3 -18 0 -34 -9
-22 -11 -29 -12 -29 -2 0 10 -2 10 -9 -1 -5 -7 -19 -15 -32 -16 -39 -4 -40 -5
-34 -15 4 -6 3 -9 -2 -8 -15 4 -113 -26 -113 -34 0 -5 -5 -6 -11 -2 -6 3 -14
1 -18 -5 -4 -6 -21 -13 -38 -14 -17 -1 -29 -5 -27 -8 5 -9 -46 -30 -56 -24 -5
3 -10 1 -12 -5 -2 -6 -14 -12 -27 -15 -12 -2 -29 -9 -37 -15 -7 -7 -19 -8 -25
-4 -8 4 -9 3 -5 -4 4 -7 2 -13 -3 -13 -21 -3 -26 -5 -78 -31 -28 -14 -53 -24
-56 -22 -2 2 -12 -5 -22 -16 -10 -11 -26 -20 -36 -20 -10 0 -21 -5 -24 -10 -4
-6 -10 -8 -15 -5 -4 3 -11 -2 -14 -11 -3 -8 -10 -12 -16 -9 -5 3 -10 2 -10 -3
0 -9 -19 -17 -43 -20 -5 0 -16 -9 -25 -19 -9 -10 -24 -19 -32 -21 -8 -2 -16
-8 -18 -13 -2 -5 -10 -9 -18 -9 -8 0 -17 -6 -20 -14 -3 -8 -12 -12 -20 -9 -8
3 -14 0 -14 -6 0 -6 -7 -11 -15 -11 -8 0 -15 -4 -15 -10 0 -5 -7 -10 -15 -10
-9 0 -18 -7 -21 -15 -4 -8 -9 -13 -13 -10 -4 2 -20 -8 -36 -23 -16 -15 -32
-26 -35 -26 -3 1 -3 -3 -2 -10 2 -6 0 -8 -3 -4 -8 8 -88 -44 -116 -74 -9 -10
-19 -18 -22 -18 -6 0 -41 -28 -89 -72 -17 -15 -35 -25 -40 -22 -4 3 -7 1 -6
-3 3 -9 -73 -88 -90 -95 -4 -2 -6 -6 -5 -10 2 -4 -6 -10 -17 -13 -11 -4 -20
-13 -20 -21 0 -8 -5 -12 -11 -9 -6 4 -13 -2 -16 -14 -3 -12 -12 -21 -19 -21
-8 0 -14 -3 -14 -7 0 -5 -23 -32 -50 -61 -28 -30 -50 -55 -50 -57 0 -3 -12
-17 -27 -34 -36 -37 -79 -94 -73 -95 2 -1 -7 -13 -20 -28 -38 -41 -47 -53 -54
-76 -4 -12 -12 -20 -17 -17 -5 4 -9 -1 -9 -9 0 -9 -9 -25 -20 -36 -11 -11 -20
-22 -21 -25 -5 -27 -13 -45 -20 -45 -5 0 -9 -6 -9 -14 0 -8 -3 -16 -7 -18 -15
-6 -94 -178 -88 -188 4 -6 1 -9 -7 -8 -7 2 -12 -3 -11 -9 2 -7 -1 -13 -5 -13
-5 0 -9 -7 -10 -15 -1 -8 -3 -22 -4 -30 -1 -8 -6 -15 -11 -15 -5 0 -6 -7 -3
-16 3 -8 2 -13 -3 -10 -5 3 -12 -10 -15 -29 -4 -19 -12 -35 -19 -35 -7 0 -6
-4 3 -10 10 -6 11 -10 3 -10 -7 0 -12 -3 -12 -7 3 -16 -14 -73 -21 -73 -5 0
-7 -11 -5 -25 1 -14 -2 -25 -8 -25 -6 0 -7 -3 -4 -7 4 -3 2 -12 -4 -20 -9 -10
-8 -13 2 -13 10 0 10 -3 3 -8 -11 -7 -22 -51 -27 -107 -1 -16 -6 -33 -12 -37
-13 -9 -13 -41 0 -50 7 -5 6 -11 -1 -15 -6 -5 -10 -23 -9 -40 1 -18 -2 -33 -7
-33 -5 0 -4 -8 1 -19 6 -10 7 -21 4 -25 -3 -3 -7 -30 -8 -58 -1 -29 -3 -57 -5
-63 -1 -5 -1 -12 0 -15 2 -5 5 -41 12 -182 1 -38 6 -68 10 -68 4 0 7 -15 7
-32 2 -86 4 -107 12 -102 5 3 6 -2 3 -10 -3 -9 -2 -16 4 -16 6 0 9 -8 7 -17
-1 -10 1 -25 6 -34 5 -10 3 -21 -4 -28 -9 -10 -9 -12 2 -9 10 2 15 -7 16 -31
0 -19 6 -36 13 -39 7 -2 12 -8 12 -13 0 -6 -5 -7 -11 -3 -6 3 -3 -6 7 -22 11
-15 18 -31 18 -34 -1 -3 3 -16 9 -30 5 -14 9 -33 9 -43 0 -9 3 -15 9 -12 5 4
9 -3 9 -14 0 -11 13 -45 29 -75 16 -31 23 -53 17 -49 -6 3 -2 -3 8 -15 11 -12
15 -22 10 -22 -5 0 -2 -5 6 -10 8 -5 15 -14 15 -20 0 -6 7 -15 15 -20 13 -8
13 -10 1 -10 -12 0 -12 -2 1 -12 9 -7 18 -22 20 -33 2 -11 12 -28 22 -38 10
-9 15 -17 11 -17 -5 0 0 -7 11 -16 10 -8 12 -13 4 -9 -8 4 -4 -3 10 -15 14
-12 18 -18 10 -14 -13 7 -13 6 0 -12 8 -10 17 -21 20 -24 3 -3 16 -22 30 -42
14 -21 29 -38 33 -38 5 0 6 -4 3 -9 -3 -5 7 -22 22 -38 15 -17 38 -46 52 -64
14 -19 39 -48 57 -66 17 -17 29 -34 26 -37 -4 -3 -1 -6 6 -6 7 0 9 -4 6 -10
-3 -5 1 -10 9 -10 8 0 23 -13 32 -29 10 -17 21 -28 26 -25 4 3 8 2 8 -3 0 -4
16 -26 35 -47 19 -22 35 -37 35 -33 0 3 13 -6 28 -21 15 -15 26 -30 24 -34 -2
-5 2 -8 9 -8 6 0 25 -13 40 -30 16 -16 29 -27 29 -24 0 4 7 1 15 -6 8 -7 12
-17 8 -23 -3 -5 -1 -7 4 -4 6 4 14 0 17 -9 4 -9 9 -14 12 -11 3 3 17 -6 30
-20 13 -14 24 -22 24 -18 0 4 8 -2 19 -13 10 -12 21 -22 25 -22 7 0 14 -5 58
-44 15 -14 37 -27 48 -31 11 -3 20 -11 20 -16 0 -5 7 -9 15 -9 8 0 15 -4 15
-10 0 -5 7 -10 15 -10 8 0 15 -4 15 -10 0 -5 7 -10 16 -10 9 0 12 -5 8 -12 -4
-6 -3 -8 4 -4 6 3 21 -4 33 -16 12 -13 18 -16 14 -8 -6 10 -1 8 13 -4 12 -11
22 -15 23 -10 0 5 5 -2 11 -16 6 -15 12 -20 15 -13 4 10 7 10 18 0 29 -25 45
-37 47 -36 8 3 58 -25 58 -33 0 -4 3 -7 8 -6 11 4 72 -26 72 -35 0 -5 5 -5 10
-2 6 3 10 1 10 -5 0 -7 7 -10 15 -6 8 3 15 1 15 -5 0 -6 5 -7 10 -4 6 3 10 2
10 -4 0 -6 11 -13 25 -17 14 -3 25 -10 25 -16 0 -5 5 -6 10 -3 6 3 10 1 10 -4
0 -6 5 -11 11 -11 5 0 7 5 4 10 -4 6 10 -1 30 -15 21 -13 41 -22 46 -19 5 3 9
0 9 -7 0 -7 3 -9 7 -6 3 4 12 -1 20 -11 9 -10 11 -11 7 -2 -7 13 -5 13 9 2 9
-8 21 -11 26 -8 5 4 13 1 17 -5 5 -8 3 -9 -6 -4 -8 5 -11 4 -6 -3 4 -6 14 -8
22 -5 9 3 19 0 24 -7 4 -6 19 -13 34 -13 14 -1 26 -5 26 -9 0 -5 7 -8 16 -8 9
0 12 -5 8 -12 -5 -9 -3 -9 9 1 14 11 18 11 23 -2 3 -9 14 -14 25 -12 10 2 19
-1 19 -6 0 -6 5 -7 10 -4 6 3 10 2 10 -4 0 -6 6 -8 14 -5 8 3 17 0 21 -5 3 -6
11 -9 16 -6 5 4 9 1 9 -5 0 -7 6 -10 14 -7 7 3 19 0 25 -6 6 -6 11 -7 11 -3 0
5 8 2 17 -5 11 -9 14 -10 9 -2 -5 9 -2 11 8 7 9 -3 16 -9 16 -13 0 -4 12 -8
27 -9 15 -1 29 -6 32 -10 3 -4 13 -7 21 -7 8 1 24 -3 35 -9 22 -11 27 -12 68
-14 16 -1 26 -6 23 -11 -3 -4 9 -8 27 -9 59 -2 67 -3 67 -13 0 -6 5 -7 10 -4
6 4 17 1 25 -5 11 -10 15 -10 15 -1 0 7 5 9 10 6 6 -4 8 -9 6 -13 -2 -4 21 -8
52 -9 32 -1 59 -7 63 -15 7 -10 9 -10 9 2 0 13 1 13 10 0 5 -8 10 -11 10 -6 0
5 6 4 13 -3 10 -8 17 -7 25 1 8 8 12 9 12 1 0 -6 11 -10 25 -8 14 1 25 -1 25
-5 0 -4 11 -6 25 -5 14 2 25 -1 25 -6 0 -6 7 -6 18 0 11 6 24 5 37 -2 27 -15
55 -16 55 -3 0 6 5 4 10 -4 5 -8 10 -11 10 -6 0 5 7 3 15 -4 10 -8 15 -9 15
-1 0 7 8 8 23 2 13 -5 38 -8 56 -7 18 1 34 -1 36 -4 2 -4 25 -6 50 -5 24 2 43
0 41 -4 -2 -3 27 -5 65 -4 51 1 68 -1 62 -10 -4 -8 -1 -8 9 1 17 14 39 13 50
-3 5 -6 8 -5 8 4 0 11 3 11 15 1 12 -10 15 -10 15 0 0 10 3 10 15 0 12 -10 15
-10 15 0 0 8 4 9 13 3 13 -10 54 -10 64 0 3 4 14 2 24 -4 12 -6 19 -6 19 0 0
9 38 7 48 -3 2 -3 13 -1 23 5 14 7 19 6 19 -3 0 -8 3 -9 8 -3 4 6 21 11 37 11
17 0 33 -5 37 -11 5 -7 8 -6 8 1 0 7 23 11 60 10 33 -1 60 1 60 4 0 8 74 5 87
-3 7 -4 16 0 22 10 7 12 10 13 11 4 0 -10 3 -11 13 -2 8 6 17 8 21 4 10 -11
37 -12 30 -2 -3 6 13 8 40 6 26 -2 42 1 39 6 -3 5 0 7 8 5 8 -3 22 -1 33 4 14
7 16 7 11 -2 -6 -9 -3 -9 13 -1 26 14 35 14 27 1 -3 -6 1 -7 9 -4 9 3 16 9 16
13 0 3 15 7 33 7 64 2 107 9 107 17 0 5 5 5 11 1 6 -3 15 0 20 7 7 11 9 11 9
1 0 -8 5 -10 13 -5 13 8 18 9 60 11 19 2 26 6 21 15 -5 9 -4 9 6 0 9 -8 19 -9
32 -2 10 5 18 7 18 3 0 -3 6 -1 13 5 8 6 17 8 20 4 4 -3 13 0 22 7 11 9 15 9
15 1 0 -8 6 -6 16 4 14 13 19 14 25 3 6 -8 9 -9 9 -2 0 7 7 15 16 18 10 4 13
2 8 -7 -6 -9 -5 -9 8 0 8 7 18 10 21 6 4 -3 7 -1 7 6 0 7 5 9 10 6 6 -4 18 -1
27 7 14 11 16 11 8 -2 -8 -13 -6 -13 8 -2 9 8 22 10 28 6 8 -5 9 -3 4 6 -6 10
-4 12 7 7 9 -3 19 -3 22 1 4 3 13 7 21 9 35 7 41 9 53 16 6 5 17 5 22 2 6 -3
10 -1 10 5 0 6 4 9 9 5 5 -3 13 0 16 6 4 5 13 8 21 5 8 -3 17 1 21 10 4 11 8
12 13 4 5 -8 11 -8 21 2 8 7 24 13 36 12 12 -1 20 3 17 7 -5 8 18 13 53 12 7
-1 10 3 7 8 -3 5 0 10 5 10 12 2 26 5 39 9 4 1 10 2 15 1 4 0 7 4 7 10 0 5 5
7 11 3 6 -3 14 -2 18 4 4 7 18 13 31 14 14 2 31 9 38 16 8 7 18 10 23 7 5 -4
9 -1 9 4 0 6 9 11 20 11 11 0 20 5 20 10 0 6 4 10 9 10 5 0 26 8 47 17 22 9
42 16 47 15 4 -1 7 3 7 9 0 5 4 8 9 5 5 -3 14 1 21 9 7 8 16 13 20 10 5 -3 15
1 23 9 8 8 17 13 19 10 3 -2 11 2 18 11 7 8 20 15 30 15 10 0 23 7 30 15 7 8
16 12 21 9 5 -3 9 -1 9 5 0 6 11 13 25 17 14 3 25 10 25 15 0 5 6 9 14 9 7 0
19 7 26 15 6 8 15 14 18 13 16 -3 41 15 35 25 -3 5 -1 7 4 4 6 -4 22 2 35 13
14 11 28 16 32 13 3 -3 6 1 6 11 0 9 4 14 10 11 10 -6 28 5 57 37 9 9 20 15
25 12 4 -3 8 0 8 5 0 6 6 11 14 11 8 0 17 7 20 16 3 8 10 12 16 9 5 -3 10 -2
10 4 0 5 18 21 40 34 22 13 37 27 33 30 -3 4 1 7 11 7 10 0 14 5 10 12 -4 6
-3 8 4 4 6 -3 21 4 35 16 13 13 43 39 66 58 24 19 73 63 109 98 36 34 70 62
76 62 5 0 7 3 4 6 -8 7 28 44 42 44 5 0 9 4 7 8 -1 4 10 19 24 33 14 13 56 62
94 109 37 47 72 88 77 91 6 3 10 10 11 15 1 5 6 8 11 6 5 -2 6 4 3 13 -4 8 -2
15 3 15 5 0 12 9 15 20 3 11 13 20 22 20 9 0 13 6 9 15 -3 8 -1 15 4 15 6 0 9
6 7 13 -1 6 4 11 11 10 6 -2 12 6 12 17 0 11 5 20 10 20 6 0 10 7 10 15 0 8 5
15 11 15 5 0 7 4 4 10 -3 6 -1 10 4 10 6 0 11 7 11 15 0 8 5 15 11 15 5 0 8 4
5 9 -4 5 -1 11 4 13 6 2 12 13 13 25 0 12 4 20 8 17 4 -2 10 8 13 21 4 14 11
23 16 20 6 -3 7 1 4 9 -4 10 -1 16 7 16 7 0 10 3 6 6 -3 3 8 33 24 65 17 32
27 63 24 69 -3 5 -1 10 4 10 6 0 11 12 11 26 0 14 4 23 10 19 6 -3 10 3 10 14
0 12 6 21 13 21 8 0 7 4 -3 10 -9 6 -11 10 -3 10 7 0 10 7 6 17 -4 11 -3 14 5
9 8 -5 10 -2 6 8 -3 9 -1 16 4 16 6 0 9 9 7 20 -2 11 0 20 5 20 4 0 7 11 6 25
-2 13 0 22 4 20 4 -3 10 4 13 15 3 13 1 18 -6 14 -8 -5 -7 -2 1 7 6 7 12 22
12 34 0 12 5 26 12 33 9 9 9 12 -2 12 -13 0 -13 2 0 10 8 5 11 10 7 10 -4 0
-3 9 3 19 6 13 7 22 0 26 -6 4 -4 15 6 31 9 13 13 24 9 24 -4 0 -2 6 4 14 8
10 9 16 1 21 -6 3 -8 10 -5 15 3 4 6 26 7 49 1 24 5 38 11 34 6 -4 7 -1 2 8
-13 19 -14 49 -2 49 5 0 4 7 -3 15 -7 8 -8 15 -3 15 5 0 9 9 10 20 1 11 -3 20
-9 20 -7 0 -6 5 1 14 8 10 9 16 1 21 -6 4 -7 12 0 24 6 12 5 22 -2 29 -9 9 -9
12 1 12 11 0 11 3 1 15 -10 12 -10 15 1 15 9 0 10 3 4 8 -15 10 -16 74 -1 65
7 -5 7 -2 -1 8 -10 13 -24 84 -25 129 -1 8 -5 21 -11 28 -6 8 -6 12 3 12 9 0
7 8 -5 26 -9 15 -11 23 -4 19 8 -6 10 -4 3 6 -10 16 -14 35 -16 67 0 12 -5 22
-10 22 -6 0 -8 9 -5 20 3 11 1 23 -4 26 -5 3 -7 10 -4 15 4 5 1 9 -5 9 -6 0
-9 4 -5 9 3 5 1 12 -3 15 -5 3 -9 16 -8 28 1 13 -5 29 -12 37 -7 7 -11 19 -8
27 3 7 0 14 -6 16 -6 2 -12 13 -13 24 -3 27 -15 54 -39 88 -12 19 -14 26 -5
21 7 -5 5 2 -6 15 -13 15 -15 21 -5 16 9 -4 8 -2 -2 7 -10 8 -18 22 -18 31 0
9 -5 16 -11 16 -5 0 -8 4 -4 9 3 5 -2 16 -11 25 -8 9 -12 20 -9 26 3 6 -1 13
-9 16 -9 3 -16 12 -16 20 0 8 -4 14 -10 14 -5 0 -10 8 -10 18 0 9 -9 28 -20
42 -11 14 -20 31 -20 38 0 7 -4 10 -10 7 -5 -3 -10 1 -10 9 0 8 -7 22 -16 30
-8 9 -13 16 -9 16 3 0 -3 10 -15 22 -11 12 -20 29 -20 37 0 14 -1 14 -10 1 -8
-12 -10 -11 -10 8 0 12 -5 22 -11 22 -5 0 -7 5 -4 10 3 6 -2 10 -11 10 -10 0
-14 3 -11 7 4 3 -5 16 -18 29 -14 13 -25 26 -25 29 1 21 -1 25 -10 20 -5 -3
-10 -2 -10 4 0 5 -13 23 -30 39 -16 17 -30 33 -30 37 0 12 -27 34 -34 28 -3
-4 -6 -1 -6 6 0 10 -155 171 -165 171 -2 0 -19 16 -38 35 -19 19 -39 35 -46
35 -7 0 -9 5 -6 10 3 6 -1 10 -9 10 -9 0 -16 5 -16 10 0 6 -7 10 -16 10 -8 0
-13 4 -10 8 3 5 -6 15 -19 22 -14 7 -25 17 -25 22 0 4 -4 8 -10 8 -9 0 -35 19
-65 48 -8 6 -17 12 -22 12 -5 0 -15 9 -23 19 -7 11 -17 18 -22 15 -4 -3 -8 0
-8 6 0 6 -4 9 -9 6 -5 -3 -12 1 -15 10 -3 8 -10 13 -15 10 -5 -3 -12 1 -15 10
-4 9 -9 14 -13 11 -3 -4 -14 3 -24 15 -11 11 -19 18 -19 14 0 -4 -7 0 -16 8
-8 9 -22 16 -30 16 -8 0 -14 5 -14 10 0 6 -5 10 -11 10 -6 0 -22 9 -36 20 -14
11 -29 18 -33 15 -4 -3 -11 2 -14 11 -3 9 -13 14 -20 11 -8 -3 -17 1 -20 9 -3
8 -12 14 -21 14 -8 0 -15 5 -15 11 0 5 -4 7 -10 4 -5 -3 -10 -1 -10 6 0 7 -3
9 -6 6 -4 -3 -18 2 -32 13 -13 11 -28 17 -33 14 -5 -3 -9 0 -9 6 0 6 -4 8 -10
5 -5 -3 -10 -2 -10 3 0 6 -7 13 -16 16 -10 4 -13 2 -9 -7 4 -6 -1 -3 -9 7 -9
11 -16 16 -16 11 0 -5 -7 0 -16 11 -8 10 -12 12 -8 4 7 -12 5 -13 -8 -3 -8 7
-19 9 -23 5 -5 -4 -5 -1 -1 6 7 12 -4 16 -31 13 -7 -1 -13 3 -13 9 0 6 -4 8
-10 5 -5 -3 -10 -1 -10 6 0 6 -8 9 -20 6 -11 -3 -18 0 -17 7 1 6 -6 10 -15 8
-10 -2 -18 2 -18 8 0 6 -4 8 -10 5 -5 -3 -10 -1 -10 6 0 7 -3 10 -6 6 -4 -3
-19 0 -35 8 -16 9 -39 16 -53 17 -13 1 -23 6 -20 10 4 7 -58 28 -83 28 -7 0
-13 4 -13 8 0 4 -10 9 -22 9 -13 1 -24 7 -26 12 -2 5 -10 7 -18 4 -8 -3 -14 1
-14 8 0 12 -2 12 -9 1 -6 -11 -11 -10 -25 3 -9 9 -16 14 -16 10 0 -3 -14 2
-31 11 -17 8 -29 12 -26 6 4 -5 -9 -4 -28 2 -19 6 -35 14 -35 18 0 4 -6 5 -14
2 -8 -3 -17 -1 -20 5 -4 6 -13 8 -21 4 -8 -3 -15 0 -15 7 0 10 -3 10 -15 0
-12 -10 -16 -9 -21 3 -3 9 -12 13 -20 10 -8 -3 -21 0 -29 7 -8 7 -22 10 -30 6
-8 -3 -15 0 -15 6 0 7 -6 6 -16 -2 -12 -11 -15 -11 -12 0 2 8 -4 15 -12 16 -8
0 -19 2 -25 4 -5 1 -20 1 -32 0 -13 -1 -23 4 -23 12 0 10 -3 9 -10 -2 -8 -12
-10 -12 -10 -1 0 8 -3 11 -7 8 -3 -4 -13 -1 -21 6 -13 9 -14 9 -8 0 5 -9 2
-11 -8 -7 -9 3 -16 11 -16 18 0 7 -3 7 -8 1 -10 -14 -32 -17 -32 -4 0 5 -8 9
-17 7 -10 -1 -24 1 -30 5 -8 5 -13 3 -13 -4 0 -8 -6 -7 -18 4 -13 12 -22 13
-36 5 -13 -7 -17 -7 -12 0 4 6 -1 10 -11 10 -10 -1 -31 2 -46 6 -22 5 -27 4
-21 -6 6 -10 5 -11 -8 -1 -8 7 -18 10 -21 6 -4 -3 -7 -1 -7 5 0 14 -22 12 -32
-3 -5 -6 -8 -5 -8 3 0 8 -13 12 -32 12 -70 0 -103 4 -110 14 -5 7 -8 6 -8 -4
0 -13 -1 -13 -10 0 -9 13 -11 13 -20 0 -6 -9 -10 -10 -10 -3 0 8 -13 11 -35 9
-20 -1 -35 2 -35 8 0 6 -5 4 -10 -4 -5 -8 -10 -10 -10 -5 0 6 -16 10 -35 11
-22 0 -32 -3 -28 -10 5 -8 2 -8 -8 0 -8 6 -27 10 -42 9 -15 -1 -30 2 -33 7 -3
4 -15 3 -26 -3 -11 -6 -23 -7 -27 -3 -7 11 -41 15 -41 5 0 -4 -9 -7 -20 -7
-11 0 -20 4 -20 8 0 5 -9 4 -20 -2 -12 -6 -20 -7 -20 -1 0 11 -19 9 -39 -3 -7
-5 -16 -5 -20 0 -8 12 -31 16 -31 6 0 -9 -64 -7 -79 3 -6 3 -11 2 -11 -4 0
-11 -19 -9 -39 3 -10 6 -12 5 -7 -3z m256 -151 c0 9 3 11 8 5 8 -11 121 -13
138 -2 7 4 17 0 24 -8 9 -11 17 -12 32 -4 16 8 23 8 29 -2 7 -12 9 -11 9 1 0
10 3 11 12 2 7 -7 17 -8 29 -2 11 6 20 6 23 1 3 -5 16 -7 28 -3 16 4 19 2 13
-9 -6 -11 -5 -12 5 -2 10 9 17 10 27 2 8 -8 13 -8 13 -1 0 5 9 8 20 5 11 -3
17 -10 13 -17 -5 -8 -3 -8 8 1 21 17 22 17 47 4 17 -9 22 -9 23 1 0 10 2 10 6
1 2 -7 11 -13 19 -13 10 0 12 5 8 13 -6 9 -5 9 7 0 8 -7 32 -13 52 -15 20 -1
37 -7 37 -12 0 -6 5 -5 12 2 7 7 17 8 30 1 10 -5 18 -7 18 -4 0 3 9 1 20 -5
15 -8 20 -8 20 2 0 9 3 9 10 -2 5 -8 10 -10 10 -5 0 6 5 3 10 -5 8 -12 10 -12
10 -1 0 11 3 11 15 1 8 -6 19 -9 24 -6 5 4 12 2 15 -3 4 -5 17 -8 31 -6 14 1
28 -2 31 -6 3 -5 17 -9 32 -9 15 0 34 -4 42 -10 9 -6 17 -5 22 3 6 9 8 9 8 0
0 -7 9 -13 21 -13 11 0 30 -5 41 -11 15 -8 19 -8 13 1 -4 7 7 5 25 -5 17 -9
34 -14 38 -11 3 3 11 1 17 -4 7 -6 24 -11 39 -12 14 -1 26 -6 26 -11 0 -5 8
-7 18 -5 9 2 23 -3 30 -12 8 -8 11 -9 7 -2 -9 17 20 15 34 -2 7 -8 21 -13 32
-11 12 3 17 0 13 -7 -5 -7 -2 -9 9 -5 9 3 19 2 22 -4 4 -5 11 -7 16 -4 5 4 9
2 9 -2 0 -5 12 -10 27 -11 14 -1 35 -10 46 -20 11 -9 17 -12 13 -5 -4 8 2 7
21 -2 15 -8 36 -15 45 -15 9 0 18 -5 20 -10 2 -6 13 -12 26 -13 12 0 22 -6 22
-11 0 -5 3 -6 7 -3 3 4 12 2 20 -4 7 -6 13 -8 13 -5 0 4 7 0 16 -8 8 -9 20
-14 25 -11 5 4 9 1 9 -5 0 -6 4 -9 9 -5 5 3 17 -2 25 -11 9 -8 16 -13 16 -10
0 3 13 0 30 -5 16 -6 28 -15 25 -19 -3 -4 4 -6 15 -3 11 3 20 1 20 -5 0 -11
38 -28 53 -24 4 1 7 -2 7 -8 0 -5 6 -10 14 -10 7 0 19 -7 26 -15 6 -8 15 -14
18 -13 12 3 102 -46 102 -54 0 -4 9 -8 20 -8 11 0 20 -4 20 -9 0 -5 8 -11 18
-14 17 -6 72 -37 82 -47 15 -15 71 -50 80 -50 5 0 10 -5 10 -11 0 -5 4 -8 9
-5 5 3 16 -6 25 -19 9 -14 21 -23 26 -20 6 4 10 1 10 -6 0 -7 3 -10 6 -6 9 9
44 -25 37 -36 -3 -6 -2 -7 4 -4 12 7 93 -50 93 -66 0 -5 3 -8 6 -5 3 4 14 -1
24 -10 10 -9 31 -28 47 -42 73 -63 113 -100 107 -100 -4 0 9 -13 29 -29 20
-15 34 -31 30 -35 -3 -3 2 -6 12 -6 10 0 16 -3 13 -6 -3 -3 16 -27 44 -55 27
-27 46 -49 43 -49 -3 0 9 -13 27 -30 18 -16 29 -30 24 -30 -5 0 4 -11 20 -25
16 -14 25 -25 20 -25 -5 0 1 -8 12 -19 12 -10 22 -22 22 -26 0 -4 8 -14 18
-22 10 -9 11 -12 2 -7 -8 3 -5 -4 8 -17 28 -29 72 -96 72 -109 0 -6 5 -10 11
-10 5 0 7 -4 4 -10 -3 -5 -1 -10 5 -10 6 0 8 -4 5 -10 -3 -5 -1 -10 4 -10 6 0
11 -7 11 -15 0 -8 5 -15 10 -15 6 0 10 -7 10 -16 0 -8 7 -22 15 -31 8 -8 13
-19 10 -24 -4 -5 -2 -9 4 -9 5 0 13 -10 17 -22 3 -13 14 -32 23 -42 9 -11 10
-16 3 -12 -7 4 -3 -9 8 -29 11 -19 20 -42 20 -51 0 -8 4 -13 8 -10 5 3 9 0 10
-7 3 -41 10 -67 19 -79 6 -7 15 -27 19 -43 4 -17 10 -34 14 -40 4 -5 8 -17 8
-25 2 -39 7 -60 14 -60 4 0 8 -10 8 -22 0 -38 3 -58 9 -58 3 0 7 -21 9 -47 1
-26 7 -52 12 -57 6 -6 5 -16 -1 -28 -7 -13 -6 -18 3 -18 9 0 9 -3 1 -11 -9 -9
-8 -18 4 -35 10 -16 11 -24 4 -24 -7 0 -9 -5 -6 -11 8 -12 13 -249 5 -249 -3
0 -4 -24 -4 -52 1 -29 -3 -59 -8 -65 -7 -9 -7 -13 2 -13 9 0 10 -4 2 -13 -6
-7 -12 -31 -13 -52 -1 -22 -7 -46 -13 -54 -9 -12 -8 -13 4 -6 12 7 13 6 3 -6
-6 -8 -14 -27 -17 -44 -11 -65 -17 -89 -27 -107 -5 -10 -7 -23 -4 -28 3 -6 2
-10 -2 -10 -5 0 -9 -10 -10 -22 -1 -11 -6 -24 -10 -27 -4 -3 -8 -10 -9 -16 -1
-23 -17 -65 -23 -61 -4 3 -7 -3 -8 -12 -1 -9 -4 -26 -6 -37 -3 -11 -6 -24 -6
-28 -1 -5 -6 -5 -11 -2 -6 4 -9 3 -8 -2 4 -14 -23 -83 -32 -83 -5 0 -7 -7 -4
-15 4 -8 1 -15 -5 -15 -6 0 -11 -7 -11 -15 0 -8 -5 -15 -11 -15 -5 0 -7 -4 -4
-10 3 -5 1 -10 -6 -10 -7 0 -9 -3 -6 -7 4 -3 -4 -21 -18 -39 -14 -18 -25 -36
-25 -40 0 -4 -8 -16 -17 -27 -13 -15 -14 -19 -3 -13 9 4 8 2 -2 -7 -10 -8 -18
-19 -18 -24 0 -6 -12 -22 -26 -37 -15 -14 -23 -26 -18 -26 5 0 1 -5 -8 -11
-10 -5 -18 -14 -18 -20 0 -13 -87 -119 -93 -113 -2 3 -7 -7 -11 -21 -4 -14
-13 -25 -22 -25 -8 0 -13 -4 -9 -9 3 -6 -4 -15 -15 -21 -11 -6 -18 -15 -16
-19 3 -4 -6 -14 -19 -21 -13 -7 -22 -17 -19 -22 3 -4 -3 -8 -12 -8 -10 0 -15
-3 -11 -6 8 -8 -47 -64 -63 -64 -6 0 -9 -3 -7 -7 3 -5 -1 -14 -9 -21 -8 -7
-14 -11 -14 -9 0 3 -24 -18 -52 -45 -29 -27 -62 -56 -73 -66 -11 -9 -35 -31
-54 -47 -19 -17 -30 -23 -26 -15 5 8 -3 4 -17 -10 -43 -43 -77 -68 -83 -62 -3
3 -5 0 -5 -6 0 -7 -5 -12 -10 -12 -10 0 -22 -8 -55 -38 -8 -7 -15 -11 -15 -7
0 3 -10 -3 -22 -15 -21 -19 -33 -24 -51 -21 -5 1 -6 -3 -3 -8 5 -8 -17 -23
-37 -25 -5 -1 -15 -10 -23 -20 -8 -11 -14 -16 -14 -12 0 5 -6 3 -13 -3 -8 -6
-17 -8 -20 -4 -4 3 -7 1 -7 -5 0 -6 -10 -16 -21 -23 -17 -9 -20 -8 -14 3 3 7
-2 3 -13 -9 -11 -12 -22 -19 -26 -16 -3 3 -8 -1 -12 -10 -3 -9 -12 -13 -20
-10 -8 3 -14 0 -14 -7 0 -7 -7 -10 -15 -6 -9 3 -15 0 -15 -10 0 -8 -4 -13 -9
-9 -5 3 -16 -1 -24 -9 -8 -8 -17 -12 -21 -9 -3 4 -6 1 -6 -6 0 -7 -4 -10 -9
-6 -5 3 -16 -1 -24 -9 -8 -8 -17 -13 -20 -10 -2 3 -20 -4 -38 -15 -18 -11 -36
-18 -41 -15 -4 3 -8 0 -8 -6 0 -6 -4 -8 -10 -5 -5 3 -10 1 -10 -4 0 -6 -9 -11
-20 -11 -11 0 -20 -4 -20 -10 0 -5 -11 -10 -24 -10 -14 0 -27 -4 -31 -10 -3
-5 -13 -6 -22 -3 -12 5 -14 3 -8 -7 6 -10 4 -12 -8 -7 -9 3 -18 0 -21 -9 -3
-8 -10 -14 -16 -14 -6 0 -8 6 -4 13 4 6 -1 5 -12 -4 -10 -9 -27 -15 -37 -14
-9 2 -15 0 -12 -5 6 -10 -24 -22 -36 -14 -5 3 -9 0 -9 -6 0 -6 -4 -9 -9 -5 -5
3 -12 1 -16 -5 -3 -5 -17 -10 -31 -10 -13 0 -24 -4 -24 -10 0 -5 -7 -7 -15 -4
-8 4 -15 1 -15 -4 0 -6 -9 -9 -20 -7 -11 2 -25 -2 -32 -8 -7 -7 -20 -13 -28
-14 -8 -1 -28 -4 -44 -8 -16 -3 -34 -7 -40 -8 -6 -1 -13 -5 -16 -9 -3 -3 -21
-9 -40 -12 -34 -7 -60 -12 -70 -16 -10 -4 -25 -7 -43 -8 -12 -1 -15 -6 -11
-14 5 -9 2 -9 -9 1 -14 11 -17 11 -17 0 0 -11 -2 -11 -10 1 -8 12 -10 12 -10
1 0 -9 -8 -12 -25 -9 -14 3 -25 1 -25 -3 0 -5 -9 -9 -19 -9 -11 0 -23 -5 -26
-10 -4 -6 -12 -7 -23 -1 -11 6 -20 4 -29 -7 -7 -10 -13 -12 -12 -7 3 21 -2 29
-9 17 -5 -6 -28 -15 -53 -18 -24 -3 -53 -7 -64 -9 -11 -2 -30 -4 -43 -4 -16
-1 -21 -5 -16 -13 6 -10 5 -10 -7 -1 -22 18 -25 19 -40 7 -8 -6 -26 -11 -41
-10 -16 1 -28 -2 -28 -6 0 -4 -5 -8 -11 -8 -5 0 -7 5 -3 11 4 8 1 8 -12 1 -11
-5 -25 -7 -33 -4 -9 3 -11 0 -6 -8 6 -9 3 -9 -13 -1 -24 13 -35 14 -28 3 2 -4
-25 -7 -60 -6 -40 0 -64 -3 -64 -10 0 -6 -4 -5 -9 3 -6 9 -11 10 -15 2 -5 -7
-15 -7 -31 -1 -14 5 -25 6 -25 2 0 -4 -48 -7 -106 -7 -58 0 -108 -3 -110 -7
-3 -5 -13 -4 -23 1 -10 6 -23 6 -31 1 -8 -5 -19 -6 -25 -2 -18 11 -65 10 -65
-2 0 -8 -2 -8 -8 0 -4 6 -20 11 -37 10 -16 -1 -40 2 -52 6 -13 4 -23 4 -23 -1
0 -5 -15 -6 -32 -2 -18 4 -46 6 -61 4 -16 -2 -26 0 -23 5 6 10 -24 9 -42 -2
-6 -4 -12 -3 -12 1 0 5 -10 9 -22 10 -99 2 -118 4 -113 12 3 6 -6 6 -24 1 -16
-4 -33 -4 -38 1 -5 5 -32 10 -61 11 -28 2 -52 6 -52 10 0 3 -13 5 -30 4 -16
-1 -30 1 -30 5 0 4 -9 5 -20 2 -13 -3 -20 0 -20 8 0 11 -2 11 -10 -1 -8 -12
-10 -12 -10 -1 0 8 -7 11 -20 8 -11 -3 -22 -1 -25 4 -3 5 -19 7 -35 5 -16 -2
-27 1 -24 5 3 5 -11 9 -31 9 -20 0 -34 3 -32 8 3 4 -11 8 -30 9 -19 1 -41 7
-48 13 -9 8 -15 8 -20 0 -4 -7 -11 -5 -21 4 -8 9 -21 13 -29 10 -8 -4 -15 -1
-15 5 0 6 -3 10 -7 10 -23 -4 -54 2 -49 9 2 4 -8 7 -22 6 -15 -1 -37 5 -50 13
-12 7 -27 11 -32 8 -6 -3 -10 -2 -10 3 0 5 -7 9 -15 10 -8 1 -22 3 -30 4 -8 1
-15 5 -15 10 0 5 -4 7 -9 4 -5 -3 -23 1 -40 10 -17 8 -35 13 -41 9 -5 -3 -10
-1 -10 4 0 6 -9 11 -19 11 -11 0 -23 5 -26 10 -3 5 -15 10 -26 10 -10 0 -19 4
-19 8 0 4 -10 8 -22 9 -11 1 -24 6 -27 11 -3 6 -17 12 -31 13 -14 2 -31 10
-38 17 -8 7 -18 10 -23 7 -5 -4 -9 -1 -9 5 0 6 -4 8 -10 5 -5 -3 -10 -2 -10 3
0 6 -7 13 -16 16 -10 4 -13 2 -8 -7 4 -6 -2 -3 -14 7 -12 11 -22 15 -22 10 0
-5 -4 -4 -8 1 -7 10 -60 38 -75 39 -4 1 -12 7 -16 15 -5 7 -14 10 -20 7 -6 -4
-11 -3 -11 1 0 5 -20 17 -45 27 -24 10 -42 23 -38 29 3 6 1 7 -6 3 -6 -4 -23
2 -37 13 -15 12 -33 21 -40 21 -8 0 -14 4 -14 9 0 5 -10 13 -22 17 -20 6 -31
13 -62 41 -8 7 -16 9 -20 6 -3 -3 -8 2 -12 11 -3 9 -12 16 -19 16 -10 0 -56
31 -103 70 -6 6 -12 8 -12 3 0 -4 -7 2 -16 13 -8 10 -12 12 -9 4 4 -8 -4 -1
-19 15 -14 17 -25 26 -26 22 0 -5 -6 -2 -14 5 -8 7 -33 29 -56 48 -23 19 -62
54 -88 77 -26 24 -51 43 -55 43 -5 0 -5 4 -2 10 3 6 2 10 -3 10 -15 0 -72 56
-72 71 0 7 -2 10 -5 7 -7 -7 -75 52 -75 64 0 5 -15 24 -33 42 -17 18 -43 47
-57 65 -14 17 -40 48 -57 69 -18 20 -33 43 -33 50 0 6 -5 12 -10 12 -6 0 -15
11 -20 25 -5 14 -14 25 -20 25 -6 0 -9 4 -6 8 3 5 -4 19 -15 30 -11 12 -17 22
-13 22 4 0 -3 8 -14 19 -24 20 -30 37 -9 25 6 -4 1 5 -12 20 -14 14 -26 33
-27 42 -1 9 -10 24 -18 33 -9 10 -16 23 -16 30 0 7 -7 19 -15 28 -8 8 -13 19
-10 24 4 5 1 9 -5 9 -6 0 -8 5 -5 10 3 6 1 10 -4 10 -6 0 -10 3 -9 8 1 4 -3
17 -10 30 -7 12 -9 22 -5 22 4 0 2 4 -5 9 -7 4 -14 20 -16 34 -1 14 -8 33 -16
41 -7 9 -10 16 -6 16 4 0 0 11 -9 24 -9 13 -13 31 -9 41 5 13 4 16 -4 11 -8
-5 -12 0 -12 13 0 12 1 23 3 24 1 2 -4 11 -12 20 -7 10 -11 17 -8 17 3 0 -1
21 -9 46 -7 26 -11 50 -8 55 3 5 1 9 -5 9 -5 0 -8 11 -6 25 1 14 -2 25 -8 25
-5 0 -3 8 4 17 8 10 9 14 2 10 -7 -5 -12 -1 -13 10 0 10 -1 35 -1 56 -1 20 -5
37 -11 37 -5 0 -4 10 3 21 6 12 7 19 2 16 -4 -3 -9 41 -10 98 0 57 -4 108 -8
114 -3 6 -3 11 2 11 4 0 8 24 7 52 0 29 4 56 10 60 7 5 7 8 -2 8 -8 0 -10 5
-5 13 4 6 8 31 8 54 1 23 8 50 16 59 12 16 12 17 -1 9 -12 -7 -13 -6 -4 6 6 8
10 28 9 46 0 17 3 30 7 27 4 -2 7 4 8 13 1 45 5 63 12 63 4 0 5 7 2 15 -4 8
-2 15 3 15 5 0 9 8 10 18 2 32 12 64 29 89 9 14 11 22 5 19 -7 -5 -9 -1 -5 8
3 9 10 16 16 16 5 0 7 4 4 9 -7 10 16 71 26 71 4 0 5 7 2 15 -4 8 -2 15 4 15
6 0 13 14 17 30 4 18 11 27 17 24 7 -4 8 -2 4 5 -4 6 -2 18 4 26 7 8 9 15 4
15 -4 0 2 10 14 23 11 12 21 25 22 29 7 33 14 48 22 48 5 0 7 4 4 9 -4 5 -2
11 3 13 5 1 11 10 13 18 2 8 11 21 21 28 9 7 15 18 12 23 -4 5 -1 9 4 9 6 0
11 6 11 14 0 8 4 16 9 18 5 2 11 10 13 18 2 8 11 21 21 28 9 7 17 20 17 28 0
8 4 14 8 14 5 0 15 11 22 25 7 13 17 22 21 19 5 -3 6 2 3 10 -4 11 0 16 11 16
9 0 14 4 11 8 -2 4 13 27 35 51 22 23 47 53 55 67 9 13 20 21 25 18 5 -3 9 0
9 6 0 6 13 24 30 40 17 16 30 34 30 40 0 5 3 9 8 8 4 -1 38 28 75 65 38 37 73
67 78 67 6 0 7 5 4 10 -3 6 -1 10 4 10 6 0 19 8 29 18 25 22 46 39 112 87 30
22 64 48 74 57 11 10 26 18 33 18 7 0 13 4 13 8 0 5 15 17 34 27 19 11 32 24
29 29 -4 6 -3 8 2 4 4 -4 20 1 35 12 16 11 31 20 35 20 4 0 14 8 22 18 9 10
11 11 7 2 -8 -15 33 14 48 35 4 6 8 6 8 1 0 -5 8 -2 18 7 10 10 22 14 25 10 4
-3 7 -1 7 6 0 7 5 9 10 6 6 -3 10 -1 10 4 0 6 7 11 15 11 9 0 18 7 21 15 4 8
10 15 16 15 5 0 6 -5 3 -11 -4 -6 2 -5 14 3 12 7 21 16 21 20 0 5 9 8 19 8 10
0 22 7 25 16 5 14 9 14 23 3 11 -9 14 -10 10 -2 -5 8 1 15 18 19 14 3 25 10
25 16 0 5 4 7 9 3 5 -3 13 0 16 6 4 5 13 8 21 5 7 -3 17 1 21 8 5 8 17 16 28
18 11 1 26 9 34 16 7 7 20 11 28 8 9 -4 11 -2 7 6 -5 8 -2 9 9 5 10 -3 17 -2
17 4 0 6 5 7 10 4 6 -3 10 -1 10 4 0 6 11 11 24 11 14 0 31 6 38 13 7 6 22 14
33 15 11 2 22 8 23 13 2 5 8 9 13 9 6 0 7 -6 3 -12 -4 -7 2 -5 13 5 11 9 23
14 26 10 4 -3 7 -1 7 6 0 7 5 9 10 6 6 -4 17 -1 25 5 8 7 15 10 15 7 0 -3 15
0 34 8 18 8 36 11 40 8 3 -4 6 -1 6 6 0 8 8 11 20 8 11 -3 20 -1 20 5 0 5 5 6
10 3 6 -3 10 -1 10 5 0 6 4 9 9 5 5 -3 13 -1 16 5 5 8 11 8 20 0 9 -8 14 -6
19 5 3 9 11 13 16 10 6 -4 16 -2 23 3 7 5 22 8 35 7 12 -1 22 2 22 6 0 4 7 10
16 13 8 3 12 2 9 -4 -3 -6 -1 -10 4 -10 6 0 11 5 11 11 0 6 10 9 23 8 12 -2
28 0 35 5 7 4 24 9 37 12 14 2 37 7 53 10 44 9 86 16 102 16 8 1 20 4 25 8 6
4 22 7 38 6 15 -1 27 2 27 6 0 4 9 5 20 3 11 -2 22 1 26 7 4 6 10 5 15 -3 7
-11 9 -11 9 1 0 13 1 13 10 0 6 -9 10 -11 10 -3 0 7 7 10 15 7 8 -4 15 -2 15
3 0 5 17 8 38 7 20 0 40 4 44 9 4 7 12 6 22 -2 9 -8 16 -9 16 -4 0 13 32 13
49 -1 11 -8 13 -8 8 0 -9 16 38 24 54 10 9 -8 10 -8 5 2 -5 8 0 11 16 8 13 -2
31 1 42 6 14 7 16 7 11 -2 -6 -9 -3 -9 13 -1 15 8 21 8 25 -2 3 -9 8 -9 18 -1
8 6 66 10 141 10 79 -1 128 3 128 9 0 6 5 3 10 -5 9 -13 10 -13 10 0z"/>
<path d="M4248 6405 c-2 -2 -43 -5 -93 -9 -175 -11 -303 -53 -437 -142 -202
-134 -337 -356 -382 -629 -20 -121 -14 -340 13 -455 58 -254 176 -440 355
-562 234 -160 565 -206 891 -123 170 43 412 162 483 238 l23 24 -3 374 -3 374
-360 0 c-198 0 -384 -2 -412 -3 l-53 -4 0 -159 0 -158 208 3 c114 1 213 1 220
-2 9 -3 12 -37 12 -122 l0 -117 -38 -26 c-170 -112 -380 -159 -542 -121 -187
43 -324 183 -379 384 -26 97 -33 161 -33 290 3 390 203 614 547 612 112 -1
203 -27 271 -79 66 -51 88 -77 124 -150 17 -35 35 -63 40 -63 7 0 91 16 344
66 10 2 20 5 22 7 7 7 -38 132 -67 187 -109 206 -333 338 -606 356 -43 3 -93
7 -110 8 -18 2 -34 2 -35 1z"/>
<path d="M6279 6382 l-156 -2 -36 -138 c-43 -159 -69 -259 -203 -774 -54 -208
-100 -376 -102 -373 -3 2 -8 21 -12 42 -4 21 -24 110 -44 198 -37 159 -40 173
-52 230 -3 17 -17 75 -29 130 -13 55 -26 111 -29 125 -2 14 -19 86 -36 160
-17 74 -34 146 -36 160 -3 13 -14 63 -25 110 -10 47 -21 94 -24 105 -4 20 -12
20 -194 20 -104 0 -192 -3 -196 -6 -3 -4 4 -44 15 -90 12 -46 23 -91 25 -99 6
-25 88 -362 190 -775 53 -214 98 -398 100 -408 2 -9 31 -129 65 -266 l61 -248
204 1 c112 0 206 4 210 7 6 6 58 201 180 674 57 223 82 319 145 561 22 84 40
156 41 160 1 19 19 -40 73 -237 31 -112 92 -337 137 -499 44 -162 82 -302 84
-310 5 -21 84 -311 91 -332 5 -16 24 -18 209 -18 l203 0 42 178 c23 97 55 231
71 297 16 66 31 129 33 140 2 11 45 193 96 405 50 212 111 471 136 575 25 105
51 216 59 248 l13 58 -194 -2 c-107 -1 -194 -3 -194 -4 0 -2 -40 -191 -89
-421 -50 -231 -92 -430 -94 -444 -3 -14 -10 -43 -15 -65 -6 -22 -13 -53 -16
-70 -11 -64 -57 -271 -64 -288 -5 -13 -28 60 -71 230 -35 136 -77 298 -93 358
-16 61 -62 240 -103 398 -40 159 -75 291 -78 293 -7 7 -118 9 -298 6z"/>
</g>
</svg>
